<svg width="81" height="81" viewBox="0 0 81 81" fill="none" xmlns="http://www.w3.org/2000/svg">
<path d="M40.756 7.87607C58.2867 9.53438 63.5577 23.6695 64.0019 30.5298C72.5896 32.7507 83.9376 44.6119 79.5486 61.475C73.9221 83.0923 50.8242 82.8949 41.4962 78.9465C33.945 80.5752 19.1387 77.0217 13.3642 75.6891C8.74459 74.6231 8.37937 67.6443 8.77421 64.2882C7.54034 63.4986 4.33229 61.2085 1.37102 58.3657C-1.59025 55.5229 0.926828 53.0354 2.55553 52.147L10.551 49.3338L13.3642 42.9671C5.78332 26.2655 16.5229 13.8973 22.8402 9.80089C17.6284 9.09019 16.5229 6.6422 16.6216 5.50705C16.4242 3.87835 17.5396 0.502513 23.5806 0.0287103C29.6216 -0.445093 37.5479 5.06287 40.756 7.87607Z" fill="white"/>
<path d="M16.2528 44.4562C16.6569 43.356 18.1184 43.1393 18.8244 44.0748L23.0333 49.6514C23.3012 50.0064 23.7146 50.2222 24.159 50.239L31.1406 50.5036C32.3118 50.548 32.9696 51.871 32.2981 52.8315L28.295 58.5577C28.0402 58.9222 27.9627 59.382 28.084 59.8099L29.9898 66.5316C30.3095 67.6592 29.2546 68.6936 28.1335 68.3517L21.4506 66.314C21.0252 66.1843 20.5639 66.2527 20.1945 66.5003L14.3907 70.39C13.4171 71.0425 12.1073 70.3588 12.086 69.187L11.9588 62.2015C11.9507 61.7568 11.7431 61.3393 11.3935 61.0644L5.90073 56.7466C4.97931 56.0223 5.22479 54.5654 6.33267 54.183L12.937 51.9034C13.3574 51.7583 13.6903 51.4319 13.8437 51.0144L16.2528 44.4562Z" fill="#FBB22E"/>
<path fill-rule="evenodd" clip-rule="evenodd" d="M48.1801 51.0707C54.8885 47.5037 59.4118 40.7683 59.4118 33.0469C59.4118 21.5987 49.4683 12.318 37.2023 12.318C24.9363 12.318 14.9928 21.5987 14.9928 33.0469C14.9928 40.8266 19.5847 47.6053 26.3768 51.1509C23.8885 55.3982 20.0682 63.9913 20.175 72.4318C23.6299 74.0111 34.9518 76.4887 52.6009 73.7643L48.1801 51.0707Z" fill="#FAD2D0"/>
<path d="M48.1801 51.0707L47.624 50.0248C47.164 50.2694 46.9178 50.7858 47.0174 51.2972L48.1801 51.0707ZM26.3768 51.1509L27.3988 51.7497C27.5627 51.47 27.6048 51.1353 27.5152 50.8237C27.4257 50.5121 27.2123 50.2509 26.925 50.1009L26.3768 51.1509ZM20.175 72.4318L18.9906 72.4467C18.9964 72.9049 19.2659 73.3186 19.6826 73.509L20.175 72.4318ZM52.6009 73.7643L52.7816 74.935C53.1001 74.8858 53.3847 74.709 53.57 74.4454C53.7553 74.1818 53.8252 73.8541 53.7636 73.5378L52.6009 73.7643ZM58.2273 33.0469C58.2273 40.2841 53.9883 46.6408 47.624 50.0248L48.7362 52.1165C55.7887 48.3666 60.5964 41.2526 60.5964 33.0469H58.2273ZM37.2023 13.5025C48.8924 13.5025 58.2273 22.3285 58.2273 33.0469H60.5964C60.5964 20.8688 50.0442 11.1335 37.2023 11.1335V13.5025ZM16.1773 33.0469C16.1773 22.3285 25.5122 13.5025 37.2023 13.5025V11.1335C24.3605 11.1335 13.8083 20.8688 13.8083 33.0469H16.1773ZM26.925 50.1009C20.4806 46.7369 16.1773 40.3386 16.1773 33.0469H13.8083C13.8083 41.3147 18.6887 48.4738 25.8287 52.201L26.925 50.1009ZM21.3595 72.4168C21.2565 64.2859 24.9593 55.9136 27.3988 51.7497L25.3548 50.5521C22.8176 54.8828 18.8799 63.6966 18.9906 72.4467L21.3595 72.4168ZM52.4202 72.5937C34.9097 75.2966 23.842 72.8057 20.6675 71.3545L19.6826 73.509C23.4177 75.2165 34.9938 77.6807 52.7816 74.935L52.4202 72.5937ZM47.0174 51.2972L51.4383 73.9908L53.7636 73.5378L49.3427 50.8442L47.0174 51.2972Z" fill="#FFBEBA"/>
<circle cx="52.8972" cy="54.6641" r="23.6902" fill="#08A075"/>
<path d="M36.9064 55.1084C35.7219 51.1995 30.4903 51.5055 28.0226 52.1471L29.059 66.6573C32.1684 64.4364 38.0909 59.0172 36.9064 55.1084Z" fill="#FAD2D0"/>
<path d="M28.6146 52.147C31.0823 51.5054 36.3139 51.1994 37.4984 55.1083C38.6829 59.0172 32.7604 64.4363 29.6511 66.6573" stroke="#816A5C" stroke-width="2.36902" stroke-linecap="round"/>
<path d="M29.5032 32.1585L32.4644 29.1972" stroke="#816A5C" stroke-width="2.36902" stroke-linecap="round"/>
<path d="M21.8037 32.4546L19.4347 30.0856" stroke="#816A5C" stroke-width="2.36902" stroke-linecap="round"/>
<path d="M22.248 40.5981C23.1858 38.7227 25.7127 36.097 28.3186 40.5981" stroke="#816A5C" stroke-width="2.36902" stroke-linecap="round"/>
<path d="M31.4279 20.3135L25.8015 13.2064L30.8356 7.58001L22.6921 5.50712" stroke="#FFBEBA" stroke-width="2.36902" stroke-linecap="round" stroke-linejoin="round"/>
</svg>
