<svg width="79" height="84" viewBox="0 0 79 84" fill="none" xmlns="http://www.w3.org/2000/svg">
<path d="M41.497 83.7439C62.0278 82.6633 74.3643 73.3884 77.9662 68.886C79.0467 67.6944 78.4164 65.9884 77.9662 65.2843L72.1131 56.2795C74.8145 54.1784 79.7671 46.7345 77.9662 33.7677C76.1652 20.8009 65.5096 13.0568 60.4069 10.8056C60.7071 9.30479 60.587 6.12312 57.7055 5.40274C54.824 4.68235 53.5033 7.20369 53.2032 8.55441C48.5207 7.83403 42.2474 9.15472 39.696 9.90511C38.6155 7.38378 36.8445 7.35376 36.0941 7.65392L28.4401 10.8056C26.7892 9.60495 22.7671 7.0236 19.8856 6.30322C17.0041 5.58284 16.5839 7.50385 16.734 8.55441L17.6344 18.0094C16.5839 18.9099 14.1226 21.071 12.6818 22.5118C11.2411 23.9525 11.181 26.1136 11.3311 27.014C8.02937 26.7138 0.811916 35.1184 0.0751763 45.924C-1.00539 61.7723 9.83031 71.7375 15.3832 74.7391C17.3343 77.7407 25.6635 83.7439 41.497 83.7439Z" fill="white"/>
<circle cx="29.0501" cy="48.5231" r="23.6473" fill="#0AA176"/>
<path d="M19.4186 12.0715C19.3048 10.8613 20.5754 10.005 21.6544 10.5646L28.0863 13.9008C28.4958 14.1132 28.9791 14.1303 29.4025 13.9473L36.0537 11.073C37.1695 10.5908 38.3765 11.5346 38.1777 12.7337L36.9924 19.8818C36.9169 20.3369 37.05 20.8018 37.3549 21.1479L42.1439 26.5854C42.9472 27.4976 42.4226 28.9372 41.2208 29.1186L34.0562 30.2002C33.6001 30.2691 33.1991 30.5393 32.9641 30.9363L29.2727 37.1711C28.6534 38.217 27.1221 38.163 26.5782 37.076L23.3355 30.5963C23.1291 30.1838 22.7482 29.886 22.2981 29.7851L15.2276 28.201C14.0416 27.9353 13.6198 26.4622 14.4855 25.609L19.6459 20.5227C19.9745 20.1989 20.14 19.7446 20.0968 19.2854L19.4186 12.0715Z" fill="#FBB22E"/>
<path fill-rule="evenodd" clip-rule="evenodd" d="M65.1746 56.0374C70.0558 51.5994 73.1201 45.1983 73.1201 38.0814C73.1201 24.6822 62.2579 13.8199 48.8586 13.8199C35.4593 13.8199 24.5971 24.6822 24.5971 38.0814C24.5971 44.2974 26.9347 49.9674 30.7788 54.2602L20.7582 71.556C25.0065 74.4224 36.5435 79.7251 48.705 78.0053C60.8665 76.2855 69.9466 69.4063 72.9665 66.1817L65.1746 56.0374Z" fill="#FAD2D0"/>
<path d="M65.1746 56.0374L64.3482 55.1285C63.8754 55.5584 63.8111 56.279 64.2004 56.7857L65.1746 56.0374ZM30.7788 54.2602L31.8417 54.876C32.1082 54.416 32.0486 53.8368 31.6939 53.4407L30.7788 54.2602ZM20.7582 71.556L19.6953 70.9402C19.3715 71.499 19.5357 72.2131 20.0711 72.5744L20.7582 71.556ZM48.705 78.0053L48.877 79.2216L48.705 78.0053ZM72.9665 66.1817L73.8631 67.0214C74.2743 66.5824 74.3071 65.9103 73.9407 65.4333L72.9665 66.1817ZM71.8917 38.0814C71.8917 44.8379 68.9841 50.9135 64.3482 55.1285L66.001 56.9464C71.1275 52.2854 74.3485 45.5587 74.3485 38.0814H71.8917ZM48.8586 15.0483C61.5794 15.0483 71.8917 25.3606 71.8917 38.0814H74.3485C74.3485 24.0037 62.9363 12.5915 48.8586 12.5915V15.0483ZM25.8255 38.0814C25.8255 25.3606 36.1378 15.0483 48.8586 15.0483V12.5915C34.7809 12.5915 23.3686 24.0037 23.3686 38.0814H25.8255ZM31.6939 53.4407C28.0437 49.3644 25.8255 43.9834 25.8255 38.0814H23.3686C23.3686 44.6113 25.8256 50.5703 29.8636 55.0797L31.6939 53.4407ZM21.8211 72.1719L31.8417 54.876L29.7158 53.6444L19.6953 70.9402L21.8211 72.1719ZM48.533 76.789C36.7726 78.4521 25.5403 73.3006 21.4452 70.5377L20.0711 72.5744C24.4728 75.5441 36.3145 80.9982 48.877 79.2216L48.533 76.789ZM72.0699 65.3419C69.202 68.4043 60.3647 75.1158 48.533 76.789L48.877 79.2216C61.3682 77.4552 70.6913 70.4083 73.8631 67.0214L72.0699 65.3419ZM64.2004 56.7857L71.9923 66.93L73.9407 65.4333L66.1488 55.2891L64.2004 56.7857Z" fill="#FFBEBA"/>
<path d="M31.5071 59.5788C35.1924 56.0983 43.2079 49.7821 45.7876 52.3618C48.3673 54.9415 45.5317 62.4452 43.7914 65.8745" stroke="#816A5C" stroke-width="2.14976" stroke-linecap="round"/>
<path d="M56.7334 66.0281C54.5837 61.3703 51.2362 52.1161 55.0443 52.3618C58.8525 52.6075 62.978 57.5826 64.5647 60.0395" stroke="#816A5C" stroke-width="2.14976" stroke-linecap="round"/>
<path d="M45.634 19.9619C48.961 20.1154 55.9836 18.3035 57.4577 9.82733" stroke="#FFBEBA" stroke-width="2.45686" stroke-linecap="round"/>
<path d="M41.3906 36.0964L44.7596 38.9842L41.3906 42.3532" stroke="#816A5C" stroke-width="2.14976" stroke-linecap="round" stroke-linejoin="round"/>
<path d="M59.1982 36.0964L55.9222 39.3097L59.1982 42.3532" stroke="#816A5C" stroke-width="2.14976" stroke-linecap="round" stroke-linejoin="round"/>
<path d="M53.7723 43.6092H46.4017C46.4017 46.4244 47.2002 52.0547 50.3941 52.0547C53.588 52.0547 53.977 46.4244 53.7723 43.6092Z" stroke="#816A5C" stroke-width="2.14976" stroke-linejoin="round"/>
<ellipse cx="62.0859" cy="46.6847" rx="3.369" ry="1.44386" fill="white"/>
<ellipse cx="38.0216" cy="46.6847" rx="3.369" ry="1.44386" fill="white"/>
</svg>
