<svg width="74" height="74" viewBox="0 0 74 74" fill="none" xmlns="http://www.w3.org/2000/svg">
<rect x="1" y="5" width="72" height="48" rx="11" fill="white"/>
<path d="M39.232 67.5148C38.04 68.842 35.96 68.842 34.768 67.5148L17.2459 48.0045C15.5114 46.0733 16.882 43 19.4779 43L54.5221 43C57.118 43 58.4886 46.0733 56.7541 48.0046L39.232 67.5148Z" fill="white"/>
<path d="M50.7979 48.3333H50.7971C50.1869 48.3338 49.5846 48.4721 49.0353 48.7379C48.4868 49.0033 48.0052 49.389 47.6264 49.8663C47.6258 49.867 47.6253 49.8677 47.6247 49.8684L38.6093 61.1184L38.6086 61.1192C38.4134 61.3633 38.1658 61.5603 37.8842 61.6957C37.6025 61.8311 37.294 61.9014 36.9815 61.9014C36.669 61.9014 36.3605 61.8311 36.0788 61.6957C35.7972 61.5603 35.5496 61.3633 35.3544 61.1192L35.3538 61.1184L26.3383 49.8684C26.3377 49.8675 26.337 49.8667 26.3364 49.8659C25.9571 49.3883 25.475 49.0024 24.9259 48.7371L24.4908 49.6374L24.9259 48.737C24.3759 48.4713 23.7729 48.3332 23.162 48.3333C23.162 48.3333 23.1619 48.3333 23.1618 48.3333H15.4167C10.8445 48.3333 7.16669 44.6556 7.16669 40.0833V18.5C7.16669 13.9278 10.8445 10.25 15.4167 10.25H58.5834C63.1584 10.25 66.8334 13.9276 66.8334 18.5V40.0833C66.8334 44.6558 63.1584 48.3333 58.5834 48.3333H50.7979Z" fill="#FAD2D0" stroke="#FFBEBA" stroke-width="2"/>
<path d="M24.6667 24.6667H49.3334M24.6667 33.9167H49.3334M58.5834 49.3333H50.7979C50.3383 49.3337 49.8846 49.4379 49.4709 49.6381C49.0571 49.8383 48.6939 50.1294 48.4084 50.4896L39.3896 61.7438C39.1007 62.105 38.7343 62.3966 38.3175 62.597C37.9006 62.7974 37.444 62.9014 36.9815 62.9014C36.519 62.9014 36.0624 62.7974 35.6456 62.597C35.2287 62.3966 34.8623 62.105 34.5734 61.7438L25.5547 50.4896C25.2688 50.129 24.9051 49.8377 24.4908 49.6374C24.0764 49.4372 23.6222 49.3332 23.162 49.3333H15.4167C10.2922 49.3333 6.16669 45.2078 6.16669 40.0833V18.5C6.16669 13.3755 10.2922 9.25 15.4167 9.25H58.5834C63.7109 9.25 67.8334 13.3755 67.8334 18.5V40.0833C67.8334 45.2078 63.7109 49.3333 58.5834 49.3333Z" stroke="#FFBEBA" stroke-width="2" stroke-miterlimit="10" stroke-linecap="round" stroke-linejoin="round"/>
</svg>
