<svg width="75" height="123" viewBox="0 0 75 123" fill="none" xmlns="http://www.w3.org/2000/svg">
<path d="M88.8593 80.3211L15.5722 93.9742C10.5036 82.1143 15.5791 69.2658 18.7504 64.3241C18.0878 63.826 15.2873 56.5782 15.9247 49.1561C16.8624 38.2369 22.8354 29.5326 34.2518 24.9195C33.7206 23.4024 34.8378 21.3917 36.4058 20.6334C37.8516 20.0533 39.7076 17.0037 37.1728 14.7411C34.6379 12.4785 34.1878 10.1175 34.2795 9.21988C34.3929 8.111 36.7735 4.59079 42.9692 9.15492C49.165 13.719 47.5205 19.9613 45.5152 22.8212C67.5049 22.081 74.2833 42.1171 74.7315 52.0303C85.3574 62.3577 88.5774 75.1939 88.8593 80.3211Z" fill="white"/>
<path d="M84.388 76.365C82.7333 67.483 77.618 59.622 70.1674 54.5115C62.7168 49.401 53.5412 47.4596 44.6592 49.1142C35.7772 50.7689 27.9162 55.8842 22.8057 63.3348C17.6952 70.7854 15.7538 79.961 17.4085 88.843L50.8982 82.604L84.388 76.365Z" fill="#08A075"/>
<mask id="path-3-inside-1_1_580" fill="white">
<path fill-rule="evenodd" clip-rule="evenodd" d="M69.6386 61.7303C71.4889 57.2146 72.1041 52.1316 71.1438 46.9772C68.4862 32.7114 54.7669 23.301 40.501 25.9587C26.2351 28.6164 16.8248 42.3357 19.4825 56.6016C20.43 61.6875 22.7834 66.1563 26.0663 69.6811C21.2695 75.2863 19.2461 82.0248 20.4401 88.4337L50.9263 82.7542L81.4125 77.0748C80.2325 70.741 76.0052 65.2385 69.6386 61.7303Z"/>
</mask>
<path fill-rule="evenodd" clip-rule="evenodd" d="M69.6386 61.7303C71.4889 57.2146 72.1041 52.1316 71.1438 46.9772C68.4862 32.7114 54.7669 23.301 40.501 25.9587C26.2351 28.6164 16.8248 42.3357 19.4825 56.6016C20.43 61.6875 22.7834 66.1563 26.0663 69.6811C21.2695 75.2863 19.2461 82.0248 20.4401 88.4337L50.9263 82.7542L81.4125 77.0748C80.2325 70.741 76.0052 65.2385 69.6386 61.7303Z" fill="#FAD2D0"/>
<path d="M69.6386 61.7303L67.3769 60.8035C66.9061 61.9524 67.3715 63.2717 68.459 63.871L69.6386 61.7303ZM26.0663 69.6811L27.9233 71.2704C28.7316 70.3258 28.7022 68.925 27.8549 68.0153L26.0663 69.6811ZM20.4401 88.4337L18.0372 88.8813C18.1559 89.5186 18.523 90.0826 19.0575 90.4493C19.5921 90.816 20.2504 90.9553 20.8877 90.8366L20.4401 88.4337ZM50.9263 82.7542L51.3739 85.1571L50.9263 82.7542ZM81.4125 77.0748L81.8601 79.4776C83.1872 79.2304 84.0626 77.9542 83.8153 76.6271L81.4125 77.0748ZM68.741 47.4249C69.6126 52.1033 69.0544 56.7097 67.3769 60.8035L71.9003 62.657C73.9235 57.7194 74.5956 52.1598 73.5467 46.5296L68.741 47.4249ZM40.9486 28.3616C53.8875 25.9511 66.3305 34.4861 68.741 47.4249L73.5467 46.5296C70.6418 30.9367 55.6463 20.651 40.0534 23.5559L40.9486 28.3616ZM21.8853 56.1539C19.4749 43.2151 28.0098 30.772 40.9486 28.3616L40.0534 23.5559C24.4604 26.4608 14.1747 41.4562 17.0796 57.0492L21.8853 56.1539ZM27.8549 68.0153C24.8789 64.8199 22.7454 60.7704 21.8853 56.1539L17.0796 57.0492C18.1146 62.6046 20.6879 67.4927 24.2777 71.347L27.8549 68.0153ZM24.2093 68.0919C19.0039 74.1746 16.6889 81.6437 18.0372 88.8813L22.8429 87.9861C21.8034 82.4059 23.5351 76.3981 27.9233 71.2704L24.2093 68.0919ZM20.8877 90.8366L51.3739 85.1571L50.4786 80.3514L19.9924 86.0309L20.8877 90.8366ZM51.3739 85.1571L81.8601 79.4776L80.9648 74.6719L50.4786 80.3514L51.3739 85.1571ZM83.8153 76.6271C82.4829 69.475 77.731 63.3988 70.8182 59.5896L68.459 63.871C74.2793 67.0782 77.9822 72.0071 79.0096 77.5224L83.8153 76.6271Z" fill="#FFBEBA" mask="url(#path-3-inside-1_1_580)"/>
<path d="M44.313 32.2411C40.9237 31.0079 35.4509 27.2103 40.6746 21.8862C45.8984 16.5621 41.4523 12.1589 38.5763 10.6229" stroke="#FFBEBA" stroke-width="2.4442" stroke-linecap="round"/>
<ellipse cx="37.9852" cy="50.8237" rx="3.97182" ry="6.8743" transform="rotate(-10.553 37.9852 50.8237)" fill="#816A5C"/>
<ellipse cx="52.1017" cy="48.1939" rx="3.97182" ry="6.8743" transform="rotate(-10.553 52.1017 48.1939)" fill="#816A5C"/>
<ellipse cx="47.1773" cy="62.6302" rx="2.59696" ry="3.66629" transform="rotate(-10.553 47.1773 62.6302)" fill="#816A5C"/>
<circle cx="37.1737" cy="46.4685" r="0.611049" transform="rotate(-10.553 37.1737 46.4685)" fill="white"/>
<circle cx="51.8913" cy="43.7267" r="0.611049" transform="rotate(-10.553 51.8913 43.7267)" fill="white"/>
<rect x="38.2782" y="49.0599" width="0.916573" height="5.19391" rx="0.458287" transform="rotate(-10.553 38.2782 49.0599)" fill="white"/>
<rect x="52.9956" y="46.3181" width="0.916573" height="5.19391" rx="0.458287" transform="rotate(-10.553 52.9956 46.3181)" fill="white"/>
<ellipse cx="56.9904" cy="56.9174" rx="3.20801" ry="1.37486" transform="rotate(-10.553 56.9904 56.9174)" fill="white"/>
<ellipse cx="35.9654" cy="60.8343" rx="3.20801" ry="1.37486" transform="rotate(-10.553 35.9654 60.8343)" fill="white"/>
</svg>
