<svg width="75" height="64" viewBox="0 0 75 64" fill="none" xmlns="http://www.w3.org/2000/svg">
<ellipse cx="37.5" cy="48" rx="37.5" ry="16" fill="white"/>
<ellipse cx="38" cy="31" rx="32" ry="31" fill="white"/>
<mask id="path-3-inside-1_1_568" fill="white">
<path fill-rule="evenodd" clip-rule="evenodd" d="M64.5524 40.1584C65.3314 37.5771 65.7504 34.8379 65.7504 32C65.7504 16.536 53.3096 4 37.963 4C22.6165 4 10.1757 16.536 10.1757 32C10.1757 34.9949 10.6423 37.88 11.5063 40.5855C8.64611 42.5159 7 44.7795 7 47.2C7 54.1343 20.5095 59.7808 37.3719 59.9938C37.5685 59.9979 37.7655 60 37.963 60C38.0117 60 38.0604 59.9999 38.109 59.9996C38.1926 59.9999 38.2763 60 38.36 60C55.6796 60 69.72 54.2693 69.72 47.2C69.72 44.5986 67.8187 42.1785 64.5524 40.1584Z"/>
</mask>
<path fill-rule="evenodd" clip-rule="evenodd" d="M64.5524 40.1584C65.3314 37.5771 65.7504 34.8379 65.7504 32C65.7504 16.536 53.3096 4 37.963 4C22.6165 4 10.1757 16.536 10.1757 32C10.1757 34.9949 10.6423 37.88 11.5063 40.5855C8.64611 42.5159 7 44.7795 7 47.2C7 54.1343 20.5095 59.7808 37.3719 59.9938C37.5685 59.9979 37.7655 60 37.963 60C38.0117 60 38.0604 59.9999 38.109 59.9996C38.1926 59.9999 38.2763 60 38.36 60C55.6796 60 69.72 54.2693 69.72 47.2C69.72 44.5986 67.8187 42.1785 64.5524 40.1584Z" fill="#FAD2D0"/>
<path d="M64.5524 40.1584L61.6803 39.2916L61.0145 41.4978L62.9744 42.7099L64.5524 40.1584ZM11.5063 40.5855L13.1846 43.0722L15.0481 41.8145L14.3641 39.6728L11.5063 40.5855ZM37.3719 59.9938L37.435 56.9945L37.4224 56.9942L37.4098 56.994L37.3719 59.9938ZM38.109 59.9996L38.1186 56.9996L38.1061 56.9996L38.0935 56.9997L38.109 59.9996ZM62.7504 32C62.7504 34.5412 62.3754 36.9886 61.6803 39.2916L67.4244 41.0252C68.2874 38.1657 68.7504 35.1345 68.7504 32H62.7504ZM37.963 7C51.6312 7 62.7504 18.1713 62.7504 32H68.7504C68.7504 14.9008 54.9879 1 37.963 1V7ZM13.1757 32C13.1757 18.1713 24.2949 7 37.963 7V1C20.9381 1 7.17569 14.9008 7.17569 32H13.1757ZM14.3641 39.6728C13.5933 37.2591 13.1757 34.6817 13.1757 32H7.17569C7.17569 35.3081 7.69136 38.5009 8.64852 41.4981L14.3641 39.6728ZM10 47.2C10 46.2486 10.6621 44.7746 13.1846 43.0722L9.82808 38.0988C6.63008 40.2572 4 43.3104 4 47.2H10ZM37.4098 56.994C29.2624 56.8911 22.0701 55.4718 17.0248 53.3517C14.4955 52.2888 12.6488 51.1095 11.4801 49.9578C10.3218 48.8163 10 47.887 10 47.2H4C4 49.9802 5.36685 52.3571 7.26855 54.2313C9.15982 56.0951 11.7445 57.641 14.7003 58.8831C20.6254 61.373 28.6189 62.8835 37.334 62.9935L37.4098 56.994ZM37.963 57C37.7866 57 37.6105 56.9981 37.435 56.9945L37.3089 62.9931C37.5264 62.9977 37.7445 63 37.963 63V57ZM38.0935 56.9997C38.0501 56.9999 38.0066 57 37.963 57V63C38.0169 63 38.0708 62.9999 38.1246 62.9996L38.0935 56.9997ZM38.36 57C38.2795 57 38.199 56.9999 38.1186 56.9996L38.0995 62.9996C38.1862 62.9999 38.2731 63 38.36 63V57ZM66.72 47.2C66.72 47.8994 66.3853 48.8531 65.1724 50.0236C63.9508 51.2024 62.0257 52.4022 59.4012 53.4734C54.1671 55.6098 46.7295 57 38.36 57V63C47.3102 63 55.5525 61.5249 61.6686 59.0285C64.7191 57.7834 67.3865 56.2251 69.3388 54.3411C71.2996 52.4489 72.72 50.0353 72.72 47.2H66.72ZM62.9744 42.7099C65.9358 44.5413 66.72 46.1734 66.72 47.2H72.72C72.72 43.0239 69.7016 39.8156 66.1303 37.6069L62.9744 42.7099Z" fill="#FFBEBA" mask="url(#path-3-inside-1_1_568)"/>
<ellipse cx="24.3601" cy="37.04" rx="1.68" ry="2.8" fill="#816A5C"/>
<ellipse cx="52.3599" cy="37.04" rx="1.68" ry="2.8" fill="#816A5C"/>
<path d="M27.1599 46.56C30.5199 48.6134 42.2799 50.48 51.7999 46.56" stroke="#816A5C" stroke-width="2" stroke-linecap="round"/>
</svg>
