<svg width="102" height="84" viewBox="0 0 102 84" fill="none" xmlns="http://www.w3.org/2000/svg">
<path d="M48.4491 2.2834C49.3753 -0.420112 53.1989 -0.420118 54.1252 2.28339L58.6228 15.4107C59.208 17.1188 61.1585 17.9267 62.7801 17.1327L75.2429 11.0306C77.8095 9.77394 80.5132 12.4776 79.2565 15.0442L73.1544 27.507C72.3604 29.1286 73.1683 31.0791 74.8764 31.6643L88.0037 36.162C90.7072 37.0882 90.7072 40.9118 88.0037 41.838L74.8764 46.3357C73.1683 46.9209 72.3604 48.8714 73.1544 50.493L79.2565 62.9558C80.5132 65.5224 77.8095 68.2261 75.2429 66.9694L62.7801 60.8673C61.1585 60.0733 59.208 60.8812 58.6228 62.5893L54.1252 75.7166C53.1989 78.4201 49.3753 78.4201 48.4491 75.7166L43.9514 62.5893C43.3662 60.8812 41.4157 60.0733 39.7941 60.8673L27.3314 66.9694C24.7647 68.2261 22.0611 65.5224 23.3177 62.9558L29.4198 50.493C30.2138 48.8714 29.4059 46.9209 27.6978 46.3357L14.5705 41.838C11.867 40.9118 11.867 37.0882 14.5705 36.162L27.6978 31.6643C29.4059 31.0791 30.2138 29.1286 29.4198 27.507L23.3178 15.0442C22.0611 12.4776 24.7647 9.77394 27.3314 11.0306L39.7941 17.1327C41.4157 17.9267 43.3662 17.1188 43.9514 15.4107L48.4491 2.2834Z" fill="#FAD2D0"/>
<rect x="1.5" y="29.7559" width="99" height="52" rx="26" fill="#FAD2D0" stroke="#FFBEBA" stroke-width="3"/>
<path d="M36.15 44.5059C36.55 44.5059 36.85 44.4392 37.05 44.3059C37.25 44.1392 37.8667 44.0559 38.9 44.0559C40.1667 44.0559 41.15 44.3059 41.85 44.8059C41.9833 44.9059 42.1167 45.0225 42.25 45.1559C42.3833 45.2559 42.5167 45.3892 42.65 45.5559C42.7833 45.6892 42.9 45.8559 43 46.0559C43.1 46.2225 43.2 46.4225 43.3 46.6559C43.4333 46.8559 43.55 47.0725 43.65 47.3059C44.0167 48.2725 44.1833 49.3725 44.15 50.6059C44.15 51.8392 43.95 53.0059 43.55 54.1059C43.1167 55.3059 42.55 56.5892 41.85 57.9559C41.5167 58.6225 41.2 59.2059 40.9 59.7059C40.6 60.1725 40.3333 60.5559 40.1 60.8559C39.9667 61.0225 39.8167 61.2559 39.65 61.5559C39.45 61.9559 38.9833 62.5225 38.25 63.2559C37.4833 64.0225 37.1833 64.4892 37.35 64.6559C37.5167 64.8225 38.45 64.9059 40.15 64.9059H42.7L43.2 65.5059C43.8 66.2059 43.8833 66.7892 43.45 67.2559C43.05 67.6892 42.3 67.8559 41.2 67.7559C40.7667 67.7225 40.0667 67.6892 39.1 67.6559C38.1667 67.6225 36.9667 67.5725 35.5 67.5059C34.3667 67.4725 33.45 67.4225 32.75 67.3559C32.05 67.3225 31.5833 67.2892 31.35 67.2559C31.15 67.1892 31 67.0892 30.9 66.9559C30.8 66.7892 30.75 66.5892 30.75 66.3559C30.75 66.0559 30.9333 65.7225 31.3 65.3559C31.6667 64.9559 32.1167 64.5892 32.65 64.2559C35.6833 62.4892 37.75 60.5392 38.85 58.4059C38.9833 58.1059 39.1167 57.8559 39.25 57.6559C39.3833 57.4225 39.4833 57.2559 39.55 57.1559C39.6167 57.0225 39.6667 56.9392 39.7 56.9059C39.9 56.7725 40.2333 56.1559 40.7 55.0559C41.2 53.9559 41.5 53.1392 41.6 52.6059C41.6 52.4392 41.6333 52.1392 41.7 51.7059C41.7667 51.2725 41.8167 50.9892 41.85 50.8559C41.9167 50.5559 41.8833 50.1559 41.75 49.6559C41.7167 49.5559 41.6833 49.4559 41.65 49.3559C41.6167 49.2559 41.5833 49.1559 41.55 49.0559C41.5167 48.9559 41.4833 48.8559 41.45 48.7559C41.4167 48.6559 41.3667 48.5725 41.3 48.5059C41.2667 48.4059 41.2333 48.3059 41.2 48.2059C41.1333 48.1059 41.0667 48.0059 41 47.9059C40.9667 47.8059 40.9167 47.7225 40.85 47.6559C40.8167 47.5559 40.7667 47.4892 40.7 47.4559C40.6667 47.3892 40.6167 47.3225 40.55 47.2559C40.3833 47.1559 40.1667 47.0559 39.9 46.9559C39.6333 46.8225 39.3167 46.7225 38.95 46.6559C38.5833 46.5892 38.2333 46.5559 37.9 46.5559C37.6 46.5225 37.3333 46.5392 37.1 46.6059C36.7333 46.6725 36.2 46.8059 35.5 47.0059C34.8333 47.2059 34.1667 47.4392 33.5 47.7059C32.8333 47.9725 32.2833 48.2059 31.85 48.4059C31.2833 48.6725 30.8167 48.8225 30.45 48.8559C30.25 48.8559 30.0833 48.8225 29.95 48.7559C29.85 48.6892 29.7833 48.6059 29.75 48.5059C29.7167 48.2059 30.15 47.6059 31.05 46.7059C31.9833 45.7725 32.65 45.2725 33.05 45.2059C33.5833 45.0725 34.1 44.9225 34.6 44.7559C35.2667 44.5892 35.7833 44.5059 36.15 44.5059ZM50.8168 42.3559C52.1501 41.7225 53.3335 41.4725 54.3668 41.6059C55.4001 41.7059 56.5001 42.2225 57.6668 43.1559C58.8335 44.0892 59.6501 45.0059 60.1168 45.9059C60.6168 46.8059 60.8668 47.8725 60.8668 49.1059C60.8668 51.0392 60.2501 52.6225 59.0168 53.8559C57.8168 55.0892 56.2168 55.8059 54.2168 56.0059C53.1168 56.1059 52.3501 56.1059 51.9168 56.0059C51.4835 55.9059 50.8335 55.5725 49.9668 55.0059C48.5668 54.1059 47.5835 53.1725 47.0168 52.2059C46.4501 51.2392 46.1835 50.1059 46.2168 48.8059C46.2501 47.2725 46.6168 46.0059 47.3168 45.0059C48.0501 44.0059 49.2168 43.1225 50.8168 42.3559ZM56.6668 45.2059C55.8001 44.4725 55.0668 44.0892 54.4668 44.0559C53.8668 43.9892 52.9835 44.2725 51.8168 44.9059C50.4501 45.6059 49.5668 46.2392 49.1668 46.8059C48.7668 47.3392 48.6335 48.1059 48.7668 49.1059C48.8335 49.7392 48.9835 50.2725 49.2168 50.7059C49.4501 51.1059 49.8668 51.5559 50.4668 52.0559C51.7001 53.1225 52.9668 53.6225 54.2668 53.5559C55.5668 53.4559 56.6835 52.7725 57.6168 51.5059C58.0501 51.0392 58.3001 50.6225 58.3668 50.2559C58.4668 49.8559 58.4668 49.2559 58.3668 48.4559C58.2668 47.6225 58.1001 47.0059 57.8668 46.6059C57.6668 46.2059 57.2668 45.7392 56.6668 45.2059ZM65.6168 47.7559C65.8501 47.2892 66.3335 47.0892 67.0668 47.1559C67.5335 47.2225 67.8168 47.3392 67.9168 47.5059C68.0501 47.6725 68.0835 48.0559 68.0168 48.6559C67.9168 49.4225 67.8501 52.3392 67.8168 57.4059L67.7168 64.8059L66.8168 65.0059C66.1835 65.1392 65.7501 65.0392 65.5168 64.7059C65.1835 64.2059 65.0335 61.4059 65.0668 56.3059C65.1001 51.2059 65.2835 48.3559 65.6168 47.7559ZM56.7168 57.7059C59.3168 57.4059 61.1001 57.3392 62.0668 57.5059C63.0668 57.6725 63.5668 58.1225 63.5668 58.8559C63.5668 59.2892 63.2835 59.6059 62.7168 59.8059C62.1835 59.9725 61.0001 60.1059 59.1668 60.2059C57.3335 60.3059 56.3335 60.4392 56.1668 60.6059C56.0335 60.7725 55.9335 62.0059 55.8668 64.3059V67.7059L54.6168 67.8059C54.1168 67.8725 53.7668 67.8392 53.5668 67.7059C53.4001 67.6059 53.2668 67.3225 53.1668 66.8559C52.9668 66.2225 53.0001 65.0059 53.2668 63.2059C53.3335 62.7725 53.4001 62.3559 53.4668 61.9559C53.5335 61.5225 53.5668 61.1892 53.5668 60.9559C53.6001 60.7225 53.6168 60.6059 53.6168 60.6059C53.6168 60.6059 53.5335 60.6225 53.3668 60.6559C53.2001 60.6559 52.9501 60.6892 52.6168 60.7559C52.2835 60.7892 51.9501 60.8392 51.6168 60.9059C49.9835 61.2059 48.8501 61.3559 48.2168 61.3559C47.5835 61.3225 47.2335 61.1392 47.1668 60.8059C47.1001 60.3392 47.3001 59.8225 47.7668 59.2559C48.0668 58.8892 48.4335 58.6392 48.8668 58.5059C49.3001 58.3725 50.0835 58.2725 51.2168 58.2059C53.8168 58.0059 55.6501 57.8392 56.7168 57.7059Z" fill="white"/>
</svg>
