<svg width="102" height="83" viewBox="0 0 102 83" fill="none" xmlns="http://www.w3.org/2000/svg">
<path fill-rule="evenodd" clip-rule="evenodd" d="M54.1253 2.02763C53.199 -0.67588 49.3755 -0.675875 48.4492 2.02764L43.9515 15.155C43.3663 16.863 41.4158 17.671 39.7942 16.877L27.3315 10.7749C24.7648 9.51818 22.0612 12.2218 23.3179 14.7885L29.42 27.2512C29.8214 28.0712 29.8133 28.9752 29.4864 29.7442H73.088C72.7611 28.9752 72.753 28.0712 73.1545 27.2512L79.2566 14.7885C80.5133 12.2218 77.8096 9.51818 75.243 10.7749L62.7802 16.877C61.1586 17.671 59.2082 16.863 58.623 15.155L54.1253 2.02763Z" fill="#FBB22E"/>
<rect x="1.5" y="29.5" width="99" height="52" rx="26" fill="#FBB22E" stroke="#FFA400" stroke-width="3"/>
<path d="M39.65 45.85C39.8167 46.15 39.9167 46.4167 39.95 46.65C39.9833 46.85 39.9833 47.0333 39.95 47.2C39.85 47.4667 39.7333 49.2667 39.6 52.6C39.4667 56.3 39.3667 59 39.3 60.7C39.2333 62.8667 39.2833 64.2 39.45 64.7C39.4833 64.8667 39.5 65.0167 39.5 65.15C39.5333 65.25 39.55 65.35 39.55 65.45C39.5167 65.6167 39.3667 65.9167 39.1 66.35C38.9 66.6167 38.7167 66.8333 38.55 67C38.3833 67.2 38.2167 67.3333 38.05 67.4C37.7833 67.6 37.5333 67.6 37.3 67.4C37.0667 67.2667 36.85 66.9667 36.65 66.5C36.55 66.2667 36.4667 65.85 36.4 65.25C36.3333 64.65 36.2833 63.9 36.25 63C36.2167 61.1333 36.3167 59.9667 36.55 59.5C36.7167 59.1 36.8667 57.3167 37 54.15C37.0333 52.3167 37.0833 50.8167 37.15 49.65C37.2167 48.4833 37.2667 47.6333 37.3 47.1C37.4333 46.0333 37.6333 45.35 37.9 45.05C38 44.95 38.1167 44.8667 38.25 44.8C38.7167 44.5333 39.1833 44.8833 39.65 45.85ZM47.0512 42.1C48.3845 41.4667 49.5678 41.2167 50.6012 41.35C51.6345 41.45 52.7345 41.9667 53.9012 42.9C55.0678 43.8333 55.8845 44.75 56.3512 45.65C56.8512 46.55 57.1012 47.6167 57.1012 48.85C57.1012 50.7833 56.4845 52.3667 55.2512 53.6C54.0512 54.8333 52.4512 55.55 50.4512 55.75C49.3512 55.85 48.5845 55.85 48.1512 55.75C47.7178 55.65 47.0678 55.3167 46.2012 54.75C44.8012 53.85 43.8178 52.9167 43.2512 51.95C42.6845 50.9833 42.4178 49.85 42.4512 48.55C42.4845 47.0167 42.8512 45.75 43.5512 44.75C44.2845 43.75 45.4512 42.8667 47.0512 42.1ZM52.9012 44.95C52.0345 44.2167 51.3012 43.8333 50.7012 43.8C50.1012 43.7333 49.2178 44.0167 48.0512 44.65C46.6845 45.35 45.8012 45.9833 45.4012 46.55C45.0012 47.0833 44.8678 47.85 45.0012 48.85C45.0678 49.4833 45.2178 50.0167 45.4512 50.45C45.6845 50.85 46.1012 51.3 46.7012 51.8C47.9345 52.8667 49.2012 53.3667 50.5012 53.3C51.8012 53.2 52.9178 52.5167 53.8512 51.25C54.2845 50.7833 54.5345 50.3667 54.6012 50C54.7012 49.6 54.7012 49 54.6012 48.2C54.5012 47.3667 54.3345 46.75 54.1012 46.35C53.9012 45.95 53.5012 45.4833 52.9012 44.95ZM61.8512 47.5C62.0845 47.0333 62.5678 46.8333 63.3012 46.9C63.7678 46.9667 64.0512 47.0833 64.1512 47.25C64.2845 47.4167 64.3178 47.8 64.2512 48.4C64.1512 49.1667 64.0845 52.0833 64.0512 57.15L63.9512 64.55L63.0512 64.75C62.4178 64.8833 61.9845 64.7833 61.7512 64.45C61.4178 63.95 61.2678 61.15 61.3012 56.05C61.3345 50.95 61.5178 48.1 61.8512 47.5ZM52.9512 57.45C55.5512 57.15 57.3345 57.0833 58.3012 57.25C59.3012 57.4167 59.8012 57.8667 59.8012 58.6C59.8012 59.0333 59.5178 59.35 58.9512 59.55C58.4178 59.7167 57.2345 59.85 55.4012 59.95C53.5678 60.05 52.5678 60.1833 52.4012 60.35C52.2678 60.5167 52.1678 61.75 52.1012 64.05V67.45L50.8512 67.55C50.3512 67.6167 50.0012 67.5833 49.8012 67.45C49.6345 67.35 49.5012 67.0667 49.4012 66.6C49.2012 65.9667 49.2345 64.75 49.5012 62.95C49.5678 62.5167 49.6345 62.1 49.7012 61.7C49.7678 61.2667 49.8012 60.9333 49.8012 60.7C49.8345 60.4667 49.8512 60.35 49.8512 60.35C49.8512 60.35 49.7678 60.3667 49.6012 60.4C49.4345 60.4 49.1845 60.4333 48.8512 60.5C48.5178 60.5333 48.1845 60.5833 47.8512 60.65C46.2178 60.95 45.0845 61.1 44.4512 61.1C43.8178 61.0667 43.4678 60.8833 43.4012 60.55C43.3345 60.0833 43.5345 59.5667 44.0012 59C44.3012 58.6333 44.6678 58.3833 45.1012 58.25C45.5345 58.1167 46.3178 58.0167 47.4512 57.95C50.0512 57.75 51.8845 57.5833 52.9512 57.45Z" fill="white"/>
</svg>
