<svg width="102" height="84" viewBox="0 0 102 84" fill="none" xmlns="http://www.w3.org/2000/svg">
<path d="M48.4491 2.2834C49.3753 -0.420112 53.1989 -0.420118 54.1252 2.28339L58.6228 15.4107C59.208 17.1188 61.1585 17.9267 62.7801 17.1327L75.2429 11.0306C77.8095 9.77394 80.5132 12.4776 79.2565 15.0442L73.1544 27.507C72.3604 29.1286 73.1683 31.0791 74.8764 31.6643L88.0037 36.162C90.7072 37.0882 90.7072 40.9118 88.0037 41.838L74.8764 46.3357C73.1683 46.9209 72.3604 48.8714 73.1544 50.493L79.2565 62.9558C80.5132 65.5224 77.8095 68.2261 75.2429 66.9694L62.7801 60.8673C61.1585 60.0733 59.208 60.8812 58.6228 62.5893L54.1252 75.7166C53.1989 78.4201 49.3753 78.4201 48.4491 75.7166L43.9514 62.5893C43.3662 60.8812 41.4157 60.0733 39.7941 60.8673L27.3314 66.9694C24.7647 68.2261 22.0611 65.5224 23.3177 62.9558L29.4198 50.493C30.2138 48.8714 29.4059 46.9209 27.6978 46.3357L14.5705 41.838C11.867 40.9118 11.867 37.0882 14.5705 36.162L27.6978 31.6643C29.4059 31.0791 30.2138 29.1286 29.4198 27.507L23.3178 15.0442C22.0611 12.4776 24.7647 9.77394 27.3314 11.0306L39.7941 17.1327C41.4157 17.9267 43.3662 17.1188 43.9514 15.4107L48.4491 2.2834Z" fill="#08A075"/>
<rect x="1.5" y="29.7559" width="99" height="52" rx="26" fill="#08A075" stroke="#067958" stroke-width="3"/>
<path d="M39.35 66.9559C39.2167 66.9892 39.05 67.0392 38.85 67.1059C38.65 67.1392 38.4167 67.1892 38.15 67.2559C37.8833 67.3559 37.6 67.4392 37.3 67.5059C36.1667 67.8392 35.1333 67.8892 34.2 67.6559C33.7 67.5225 33.3167 67.3559 33.05 67.1559C32.8167 66.9225 32.6833 66.6559 32.65 66.3559C32.6167 65.8892 32.7667 65.5725 33.1 65.4059C33.4333 65.2392 34.1 65.1559 35.1 65.1559C36.1333 65.1559 37.1833 64.9892 38.25 64.6559L39.75 64.1559L40.75 62.1559C41.3833 60.8892 41.7167 60.0059 41.75 59.5059C41.75 59.2392 41.6833 58.9725 41.55 58.7059C41.45 58.4392 41.25 58.1559 40.95 57.8559C40.0167 56.8892 38.9667 56.4059 37.8 56.4059C37.1333 56.4059 36.6 56.2059 36.2 55.8059C35.8333 55.3725 35.7667 54.9225 36 54.4559C36.0333 54.3892 36.0833 54.3225 36.15 54.2559C36.2167 54.1892 36.3 54.1225 36.4 54.0559C36.5 53.9892 36.6167 53.9225 36.75 53.8559C37.0833 53.6225 37.3667 53.5059 37.6 53.5059C37.6667 53.5059 37.7333 53.5059 37.8 53.5059C37.8667 53.4725 37.9333 53.4392 38 53.4059C38.1 53.3725 38.2 53.3392 38.3 53.3059C38.4 53.2392 38.5167 53.1725 38.65 53.1059C39.75 52.5059 40.7 51.5392 41.5 50.2059C42.3 48.8392 42.5333 47.8392 42.2 47.2059C42.1 47.0059 41.9833 46.8392 41.85 46.7059C41.75 46.5392 41.6333 46.4059 41.5 46.3059C41.3667 46.1725 41.2 46.0892 41 46.0559C40.9 45.9892 40.7833 45.9392 40.65 45.9059C40.5167 45.8725 40.3667 45.8392 40.2 45.8059C40.0333 45.7725 39.85 45.7559 39.65 45.7559C39.4833 45.7225 39.2833 45.6892 39.05 45.6559C38.8167 45.6225 38.5667 45.6059 38.3 45.6059C36.6667 45.5392 35.3667 45.9225 34.4 46.7559C33.9667 47.1892 33.65 47.4559 33.45 47.5559C33.25 47.6225 32.9667 47.6225 32.6 47.5559C31.7 47.3559 31.5167 46.7392 32.05 45.7059C32.2167 45.3725 32.4 45.0725 32.6 44.8059C32.8333 44.5392 33.0833 44.2892 33.35 44.0559C33.8833 43.6225 34.4 43.4059 34.9 43.4059C35.1333 43.4059 35.45 43.3059 35.85 43.1059C36.0833 43.0392 36.35 42.9892 36.65 42.9559C36.95 42.8892 37.25 42.8559 37.55 42.8559C37.7167 42.8559 37.8667 42.8725 38 42.9059C38.1667 42.9059 38.3167 42.9225 38.45 42.9559C38.75 42.9892 39.0167 43.0392 39.25 43.1059C39.6833 43.3059 40.1833 43.4059 40.75 43.4059C41.0167 43.4059 41.25 43.4392 41.45 43.5059C41.6833 43.5392 41.8833 43.6059 42.05 43.7059C42.25 43.8059 42.4667 43.9559 42.7 44.1559C42.9333 44.3225 43.1833 44.5225 43.45 44.7559C44.3167 45.7225 44.7667 46.6059 44.8 47.4059C44.8667 48.1725 44.55 49.2725 43.85 50.7059C43.15 52.0392 42.5333 52.9059 42 53.3059C41.5 53.6392 41.2167 53.9059 41.15 54.1059C41.1167 54.2059 41.1167 54.3225 41.15 54.4559C41.1833 54.5559 41.25 54.6892 41.35 54.8559C41.45 54.9892 41.5667 55.1225 41.7 55.2559C41.8667 55.3559 42.0333 55.4559 42.2 55.5559C42.4 55.6559 42.5833 55.7725 42.75 55.9059C42.9167 56.0059 43.0833 56.1225 43.25 56.2559C43.35 56.3892 43.4667 56.5559 43.6 56.7559C43.7333 56.9225 43.8333 57.1059 43.9 57.3059C44 57.5059 44.0833 57.7225 44.15 57.9559C44.25 58.1559 44.3167 58.3559 44.35 58.5559C44.4167 58.7225 44.45 58.8725 44.45 59.0059C44.4833 59.1392 44.4833 59.2892 44.45 59.4559C44.4167 59.6225 44.3667 59.8225 44.3 60.0559C44.2333 60.2892 44.1667 60.5392 44.1 60.8059C43.8 61.6725 43.4667 62.3892 43.1 62.9559C43.1 63.0225 43.05 63.1225 42.95 63.2559C42.8833 63.3892 42.7667 63.5892 42.6 63.8559C42.4667 64.0892 42.3 64.4059 42.1 64.8059L39.35 66.9559ZM51.4496 42.3559C52.7829 41.7225 53.9663 41.4725 54.9996 41.6059C56.0329 41.7059 57.1329 42.2225 58.2996 43.1559C59.4663 44.0892 60.2829 45.0059 60.7496 45.9059C61.2496 46.8059 61.4996 47.8725 61.4996 49.1059C61.4996 51.0392 60.8829 52.6225 59.6496 53.8559C58.4496 55.0892 56.8496 55.8059 54.8496 56.0059C53.7496 56.1059 52.9829 56.1059 52.5496 56.0059C52.1163 55.9059 51.4663 55.5725 50.5996 55.0059C49.1996 54.1059 48.2163 53.1725 47.6496 52.2059C47.0829 51.2392 46.8163 50.1059 46.8496 48.8059C46.8829 47.2725 47.2496 46.0059 47.9496 45.0059C48.6829 44.0059 49.8496 43.1225 51.4496 42.3559ZM57.2996 45.2059C56.4329 44.4725 55.6996 44.0892 55.0996 44.0559C54.4996 43.9892 53.6163 44.2725 52.4496 44.9059C51.0829 45.6059 50.1996 46.2392 49.7996 46.8059C49.3996 47.3392 49.2663 48.1059 49.3996 49.1059C49.4663 49.7392 49.6163 50.2725 49.8496 50.7059C50.0829 51.1059 50.4996 51.5559 51.0996 52.0559C52.3329 53.1225 53.5996 53.6225 54.8996 53.5559C56.1996 53.4559 57.3163 52.7725 58.2496 51.5059C58.6829 51.0392 58.9329 50.6225 58.9996 50.2559C59.0996 49.8559 59.0996 49.2559 58.9996 48.4559C58.8996 47.6225 58.7329 47.0059 58.4996 46.6059C58.2996 46.2059 57.8996 45.7392 57.2996 45.2059ZM66.2496 47.7559C66.4829 47.2892 66.9663 47.0892 67.6996 47.1559C68.1663 47.2225 68.4496 47.3392 68.5496 47.5059C68.6829 47.6725 68.7163 48.0559 68.6496 48.6559C68.5496 49.4225 68.4829 52.3392 68.4496 57.4059L68.3496 64.8059L67.4496 65.0059C66.8163 65.1392 66.3829 65.0392 66.1496 64.7059C65.8163 64.2059 65.6663 61.4059 65.6996 56.3059C65.7329 51.2059 65.9163 48.3559 66.2496 47.7559ZM57.3496 57.7059C59.9496 57.4059 61.7329 57.3392 62.6996 57.5059C63.6996 57.6725 64.1996 58.1225 64.1996 58.8559C64.1996 59.2892 63.9163 59.6059 63.3496 59.8059C62.8163 59.9725 61.6329 60.1059 59.7996 60.2059C57.9663 60.3059 56.9663 60.4392 56.7996 60.6059C56.6663 60.7725 56.5663 62.0059 56.4996 64.3059V67.7059L55.2496 67.8059C54.7496 67.8725 54.3996 67.8392 54.1996 67.7059C54.0329 67.6059 53.8996 67.3225 53.7996 66.8559C53.5996 66.2225 53.6329 65.0059 53.8996 63.2059C53.9663 62.7725 54.0329 62.3559 54.0996 61.9559C54.1663 61.5225 54.1996 61.1892 54.1996 60.9559C54.2329 60.7225 54.2496 60.6059 54.2496 60.6059C54.2496 60.6059 54.1663 60.6225 53.9996 60.6559C53.8329 60.6559 53.5829 60.6892 53.2496 60.7559C52.9163 60.7892 52.5829 60.8392 52.2496 60.9059C50.6163 61.2059 49.4829 61.3559 48.8496 61.3559C48.2163 61.3225 47.8663 61.1392 47.7996 60.8059C47.7329 60.3392 47.9329 59.8225 48.3996 59.2559C48.6996 58.8892 49.0663 58.6392 49.4996 58.5059C49.9329 58.3725 50.7163 58.2725 51.8496 58.2059C54.4496 58.0059 56.2829 57.8392 57.3496 57.7059Z" fill="white"/>
</svg>
