<svg width="76" height="64" viewBox="0 0 76 64" fill="none" xmlns="http://www.w3.org/2000/svg">
<ellipse cx="38" cy="48" rx="38" ry="16" fill="white"/>
<ellipse cx="38.5066" cy="31" rx="32.4267" ry="31" fill="white"/>
<mask id="path-3-inside-1_36_567" fill="white">
<path fill-rule="evenodd" clip-rule="evenodd" d="M65.4122 40.1588C66.2017 37.5774 66.6263 34.838 66.6263 32C66.6263 16.536 54.0196 4 38.4685 4C22.9173 4 10.3107 16.536 10.3107 32C10.3107 34.995 10.7835 37.8802 11.6591 40.5857C8.76065 42.5161 7.09253 44.7798 7.09253 47.2004C7.09253 54.1411 20.8075 59.7916 37.9168 59.9947C38.1003 59.9982 38.2842 60 38.4685 60C38.5021 60 38.5356 59.9999 38.5691 59.9998C38.6695 60.0002 38.77 60.0004 38.8707 60.0004C56.4212 60.0004 70.6488 54.2696 70.6488 47.2004C70.6488 44.599 68.7221 42.1788 65.4122 40.1588Z"/>
</mask>
<path fill-rule="evenodd" clip-rule="evenodd" d="M65.4122 40.1588C66.2017 37.5774 66.6263 34.838 66.6263 32C66.6263 16.536 54.0196 4 38.4685 4C22.9173 4 10.3107 16.536 10.3107 32C10.3107 34.995 10.7835 37.8802 11.6591 40.5857C8.76065 42.5161 7.09253 44.7798 7.09253 47.2004C7.09253 54.1411 20.8075 59.7916 37.9168 59.9947C38.1003 59.9982 38.2842 60 38.4685 60C38.5021 60 38.5356 59.9999 38.5691 59.9998C38.6695 60.0002 38.77 60.0004 38.8707 60.0004C56.4212 60.0004 70.6488 54.2696 70.6488 47.2004C70.6488 44.599 68.7221 42.1788 65.4122 40.1588Z" fill="#FAD2D0"/>
<path d="M65.4122 40.1588L62.5434 39.2814L61.8627 41.5071L63.8494 42.7196L65.4122 40.1588ZM11.6591 40.5857L13.3221 43.0827L15.2128 41.8234L14.5134 39.662L11.6591 40.5857ZM37.9168 59.9947L37.9741 56.9953L37.9633 56.9951L37.9524 56.9949L37.9168 59.9947ZM38.5691 59.9998L38.5804 56.9998L38.5695 56.9998L38.5586 56.9998L38.5691 59.9998ZM63.6263 32C63.6263 34.5373 63.2469 36.9811 62.5434 39.2814L68.2811 41.0362C69.1565 38.1737 69.6263 35.1388 69.6263 32H63.6263ZM38.4685 7C52.3787 7 63.6263 18.2088 63.6263 32H69.6263C69.6263 14.8633 55.6606 1 38.4685 1V7ZM13.3107 32C13.3107 18.2088 24.5583 7 38.4685 7V1C21.2764 1 7.31065 14.8633 7.31065 32H13.3107ZM14.5134 39.662C13.7331 37.2511 13.3107 34.6775 13.3107 32H7.31065C7.31065 35.3126 7.83393 38.5093 8.80486 41.5094L14.5134 39.662ZM10.0925 47.2004C10.0925 46.2677 10.7533 44.7935 13.3221 43.0827L9.99616 38.0888C6.76801 40.2388 4.09253 43.2919 4.09253 47.2004H10.0925ZM37.9524 56.9949C29.6778 56.8967 22.3678 55.4774 17.2365 53.3524C14.6636 52.2869 12.7835 51.1037 11.5933 49.9474C10.4123 48.7999 10.0925 47.8733 10.0925 47.2004H4.09253C4.09253 49.9979 5.48715 52.3803 7.41232 54.2507C9.32839 56.1123 11.9464 57.6558 14.9408 58.8959C20.9444 61.3821 29.0465 62.8896 37.8812 62.9945L37.9524 56.9949ZM38.4685 57C38.3033 57 38.1385 56.9984 37.9741 56.9953L37.8595 62.9942C38.0621 62.9981 38.2651 63 38.4685 63V57ZM38.5586 56.9998C38.5287 57 38.4986 57 38.4685 57V63C38.5055 63 38.5425 62.9999 38.5797 62.9998L38.5586 56.9998ZM38.8707 57.0004C38.7738 57.0004 38.677 57.0002 38.5804 56.9998L38.5579 62.9998C38.6621 63.0002 38.7663 63.0004 38.8707 63.0004V57.0004ZM67.6488 47.2004C67.6488 47.8849 67.3168 48.8349 66.0826 50.0102C64.8413 51.1924 62.8852 52.3952 60.2203 53.4686C54.9067 55.6089 47.3598 57.0004 38.8707 57.0004V63.0004C47.9321 63.0004 56.2743 61.5265 62.4621 59.0341C65.5479 57.7911 68.2456 56.2358 70.2204 54.3552C72.2023 52.4678 73.6488 50.0505 73.6488 47.2004H67.6488ZM63.8494 42.7196C66.8648 44.5598 67.6488 46.1932 67.6488 47.2004H73.6488C73.6488 43.0048 70.5795 39.7978 66.9751 37.598L63.8494 42.7196Z" fill="#FFBEBA" mask="url(#path-3-inside-1_36_567)"/>
<path d="M27 48H53" stroke="#816A5C" stroke-width="2" stroke-linecap="round"/>
<path d="M50.5 37L55.5 37" stroke="#816A5C" stroke-width="3" stroke-linecap="round"/>
<path d="M22.5 37L27.5 37" stroke="#816A5C" stroke-width="3" stroke-linecap="round"/>
</svg>
