<svg width="82" height="66" viewBox="0 0 82 66" fill="none" xmlns="http://www.w3.org/2000/svg">
<path d="M80.9377 49.0925C82.6588 43.7967 74.3179 39.88 70.8426 38.6664C68.989 20.3959 57.8789 11.691 51.6453 9.53955C49.6594 5.30292 45.4117 2.47849 43.5361 1.59585C32.6135 -2.70698 22.6839 2.58881 18.0501 6.89164C14.1292 10.5325 13.637 15.6076 13.7473 17.8142C7.45853 25.4269 6.52073 33.8119 6.46556 36.6805C2.39485 39.0441 2.11198 43.0141 1.99999 44.5858L1.99726 44.6242C-3.96051 52.4024 4.9762 56.3742 8.45151 56.3742C10.6029 56.3742 14.5748 58.5256 15.0712 61.67C15.5677 64.8144 26.1593 63.4904 30.7931 61.67C35.4269 59.8496 45.1911 64.6489 48.3354 65.6419C51.4798 66.6348 56.7756 65.6419 58.5961 61.67C59.5905 59.5003 61.9059 58.636 63.0644 58.5256C68.305 57.5878 79.2165 54.3883 80.9377 49.0925Z" fill="white"/>
<path d="M3.42625 50.4163C1.39161 46.0981 4.97086 44.0173 6.73612 43.6311L66.6447 41.8107C69.1823 41.259 74.8201 41.3473 77.0708 46.1135C79.8842 52.0713 66.9757 55.3811 61.5144 56.0431C56.0532 56.7051 58.5356 59.1875 53.7362 61.5044C48.9369 63.8213 41.9862 60.6769 37.3524 59.1875C32.7186 57.698 27.2573 61.1734 21.6305 60.6769C16.0037 60.1805 17.1622 57.2016 13.8523 54.5537C10.5424 51.9058 5.14173 54.0572 3.42625 50.4163Z" fill="#B4DDFF"/>
<path d="M6.96214 43.3004C6.56495 41.844 8.34125 40.8179 9.27905 40.487C27.5385 40.2111 64.6532 39.825 67.0363 40.487C69.4194 41.1489 69.0222 42.6384 68.5257 43.3004C65.271 46.6102 54.0285 53.23 35.096 53.23C11.4304 53.23 7.45862 45.1208 6.96214 43.3004Z" fill="#FAD2D0" stroke="#FFBEBA" stroke-width="2.6479"/>
<path d="M67.2017 39.9904C67.2017 31.7387 64.133 23.8251 58.6707 17.9903C53.2083 12.1555 45.7998 8.87758 38.0749 8.87758C30.3499 8.87758 22.9414 12.1555 17.4791 17.9903C12.0167 23.8251 8.948 31.7387 8.948 39.9904C8.948 39.9904 13.5818 48.0996 38.0749 48.0996C62.5679 48.0996 67.2017 39.9904 67.2017 39.9904Z" fill="#08A075"/>
<path d="M35.2008 2.26521C24.4768 2.00042 18.4859 8.88512 16.9965 12.0294C16.169 13.6843 15.507 15.8357 16.169 16.4977C18.6514 17.4906 24.1127 15.8357 26.2641 14.3463C27.9852 13.1547 28.1949 13.4085 28.0845 13.6843C28.0845 15.1186 28.3162 18.7815 29.243 21.959C30.1698 25.1364 32.7791 24.1029 34.2078 22.4554C34.2078 22.4554 39.7299 16.3247 40.993 14.8427C42.2562 13.3607 46.0186 19.1381 47.9438 19.8075C50.9083 20.8384 50.9778 16.7735 50.7572 14.3463C50.04 10.4296 45.9247 2.53 35.2008 2.26521Z" fill="#FBB12C"/>
</svg>
