<svg width="189" height="124" viewBox="0 0 189 124" fill="none" xmlns="http://www.w3.org/2000/svg">
<g filter="url(#filter0_d_58_627)">
<path fill-rule="evenodd" clip-rule="evenodd" d="M22 6C13.1634 6 6 13.1634 6 22V85C6 93.8366 13.1634 101 22 101H116.072L120.402 108.5C121.557 110.5 124.443 110.5 125.598 108.5L129.928 101H159C167.837 101 175 93.8366 175 85V22C175 13.1634 167.837 6 159 6H22Z" fill="white"/>
</g>
<path d="M116.626 39.8C117 39.16 117.4 39.1867 117.826 39.88C118.173 40.4133 118.346 41.1333 118.346 42.04C118.346 42.6267 118.413 43.2 118.546 43.76C118.626 44.08 118.76 44.2667 118.946 44.32C119.16 44.3733 119.613 44.36 120.306 44.28C121.346 44.1733 121.973 44.0667 122.186 43.96C122.4 43.8267 122.786 43.8267 123.346 43.96C123.933 44.0933 124.293 44.3733 124.426 44.8C124.586 45.2 124.493 45.5733 124.146 45.92C123.8 46.24 123.346 46.3467 122.786 46.24C122.466 46.1867 121.133 46.3333 118.786 46.68C116.44 47.0267 114.666 47.3333 113.466 47.6C112.533 47.8133 112.066 47.56 112.066 46.84C112.066 46.28 112.346 45.88 112.906 45.64C113.493 45.4 114.613 45.2133 116.266 45.08C116.426 45.0533 116.493 44.2267 116.466 42.6C116.413 40.9467 116.466 40.0133 116.626 39.8ZM131.066 46.52C131.573 45.72 132.133 45.5467 132.746 46C132.906 46.1067 132.986 46.3467 132.986 46.72C133.013 47.0933 132.96 47.8133 132.826 48.88C132.56 50.5067 132.466 52.2267 132.546 54.04C132.6 55.0533 132.6 55.7333 132.546 56.08C132.493 56.4267 132.346 56.68 132.106 56.84C131.653 57.1067 131.293 57.0267 131.026 56.6C130.76 56.1467 130.613 55.3733 130.586 54.28C130.56 52.92 130.426 52.2 130.186 52.12C129.973 52.04 129.546 52.08 128.906 52.24L127.946 52.56V55C127.946 56.0933 127.906 56.7867 127.826 57.08C127.773 57.3733 127.613 57.5467 127.346 57.6C126.706 57.7067 126.306 57.4533 126.146 56.84C125.986 56.2267 125.906 54.6133 125.906 52C125.906 48.72 126.053 46.88 126.346 46.48C126.533 46.24 126.693 46.1067 126.826 46.08C126.96 46.0533 127.133 46.1067 127.346 46.24C127.746 46.48 127.973 47.1867 128.026 48.36C128.08 49.3467 128.24 49.96 128.506 50.2C128.773 50.44 129.266 50.4133 129.986 50.12C130.44 49.9333 130.693 49.76 130.746 49.6C130.826 49.44 130.826 49.08 130.746 48.52C130.613 47.72 130.72 47.0533 131.066 46.52ZM117.346 49C118.12 48.7067 118.666 48.6267 118.986 48.76C119.706 49.0267 120.186 49.2 120.426 49.28C120.746 49.4133 121.026 49.5467 121.266 49.68C121.506 49.7867 121.733 49.9333 121.946 50.12C122.16 50.28 122.333 50.4667 122.466 50.68C122.626 50.8933 122.786 51.1467 122.946 51.44C123.506 52.5867 123.533 53.8 123.026 55.08C122.52 56.3333 121.613 57.28 120.306 57.92C119.906 58.1333 119.186 58.2533 118.146 58.28C117.106 58.28 116.306 58.1867 115.746 58C115.293 57.8133 114.88 57.5467 114.506 57.2C114.16 56.8533 113.866 56.4533 113.626 56C113.386 55.52 113.226 55.0133 113.146 54.48C113.066 53.8667 113.053 53.4 113.106 53.08C113.186 52.7333 113.386 52.2933 113.706 51.76C113.92 51.4133 114.146 51.12 114.386 50.88C114.626 50.6133 114.893 50.3733 115.186 50.16C115.506 49.92 115.84 49.72 116.186 49.56C116.533 49.3733 116.92 49.1867 117.346 49ZM120.946 51.68C120.093 50.6933 118.84 50.5733 117.186 51.32C116.466 51.6667 115.946 52.0533 115.626 52.48C115.333 52.9067 115.186 53.4667 115.186 54.16C115.186 54.7733 115.466 55.2933 116.026 55.72C116.613 56.1467 117.24 56.3733 117.906 56.4C118.573 56.4267 119.186 56.24 119.746 55.84C120.6 55.12 121.133 54.4 121.346 53.68C121.56 52.96 121.426 52.2933 120.946 51.68ZM124.266 59.8C124.72 59.5067 125.333 59.3333 126.106 59.28C126.88 59.2267 127.56 59.3067 128.146 59.52C128.68 59.7333 129.333 60.2133 130.106 60.96C130.56 61.4133 130.866 61.8 131.026 62.12C131.186 62.44 131.266 62.8133 131.266 63.24C131.24 65.1333 130.72 66.6933 129.706 67.92C128.72 69.1733 127.573 69.68 126.266 69.44C125.76 69.36 125.173 69.1333 124.506 68.76C123.866 68.4133 123.346 68.0133 122.946 67.56C121.746 66.4133 121.266 65.0933 121.506 63.6C121.773 62.08 122.693 60.8133 124.266 59.8ZM128.186 61.76C127.653 61.3333 127.16 61.12 126.706 61.12C126.386 61.12 126.026 61.24 125.626 61.48C125.253 61.72 124.893 62.0267 124.546 62.4C124.226 62.7733 123.973 63.16 123.786 63.56C123.6 64.0667 123.52 64.44 123.546 64.68C123.6 64.8933 123.826 65.2933 124.226 65.88C124.946 66.92 125.733 67.4267 126.586 67.4C127.466 67.4 128.2 66.8667 128.786 65.8C129.64 64.0933 129.44 62.7467 128.186 61.76ZM143.435 41.8C143.568 41.4533 143.928 41.3067 144.515 41.36C144.568 41.3867 144.635 41.4 144.715 41.4C145.035 41.4 145.208 41.6 145.235 42C145.288 42.4 145.288 43.8 145.235 46.2C145.208 46.8133 145.195 47.3067 145.195 47.68C145.168 48.6933 145.128 49.4533 145.075 49.96C145.022 50.44 144.875 50.8533 144.635 51.2C144.422 51.5467 144.142 51.7733 143.795 51.88C143.448 51.96 142.942 52.04 142.275 52.12C141.022 52.2267 139.755 52.4 138.475 52.64C137.008 52.8533 136.155 52.8933 135.915 52.76C135.408 52.5467 135.115 49.9733 135.035 45.04C135.008 43.5733 135.048 42.64 135.155 42.24C135.288 41.84 135.568 41.64 135.995 41.64C136.928 41.64 137.342 42.3733 137.235 43.84C137.155 44.48 137.155 44.88 137.235 45.04C137.342 45.1733 137.568 45.24 137.915 45.24C138.502 45.24 139.022 45.16 139.475 45C139.902 44.84 140.648 44.7333 141.715 44.68L143.235 44.64V43.52C143.235 42.7467 143.302 42.1733 143.435 41.8ZM142.475 46.84C142.075 46.7333 141.675 46.7067 141.275 46.76C140.902 46.7867 140.208 46.9067 139.195 47.12C138.662 47.2533 138.262 47.3733 137.995 47.48C137.728 47.5867 137.488 47.72 137.275 47.88C137.088 48.0133 136.995 48.1867 136.995 48.4C137.022 48.5867 137.035 48.8533 137.035 49.2C137.062 49.7067 137.155 50.0133 137.315 50.12C137.502 50.2267 137.982 50.3067 138.755 50.36C139.822 50.44 140.782 50.36 141.635 50.12C142.062 49.9867 142.342 49.88 142.475 49.8C142.635 49.6933 142.742 49.56 142.795 49.4C142.875 49.2133 142.942 48.88 142.995 48.4C143.048 48.0267 143.062 47.7333 143.035 47.52C143.008 47.3067 142.955 47.16 142.875 47.08C142.795 46.9733 142.662 46.8933 142.475 46.84ZM140.475 53.68C140.982 53.0933 141.422 53.0533 141.795 53.56C142.115 53.96 142.208 54.52 142.075 55.24L141.915 56.44L144.235 56.28C145.755 56.2 146.728 56.08 147.155 55.92C147.715 55.68 148.195 55.8133 148.595 56.32C148.995 56.8267 149.008 57.3067 148.635 57.76C148.395 58.0267 147.462 58.24 145.835 58.4C144.075 58.56 142.382 58.8267 140.755 59.2C139.662 59.44 138.448 59.5867 137.115 59.64C136.528 59.6933 136.088 59.7067 135.795 59.68C135.528 59.6267 135.355 59.56 135.275 59.48C135.222 59.3733 135.182 59.16 135.155 58.84C135.102 58.4667 135.128 58.2267 135.235 58.12C135.368 57.9867 135.702 57.88 136.235 57.8C136.475 57.7733 136.808 57.72 137.235 57.64C138.622 57.4 139.422 57.2133 139.635 57.08C139.875 56.9467 140.008 56.5733 140.035 55.96C140.035 55.8267 140.048 55.7067 140.075 55.6C140.128 54.56 140.262 53.92 140.475 53.68ZM143.075 61.28C143.848 61.12 144.395 61 144.715 60.92C145.062 60.84 145.408 60.8267 145.755 60.88C146.128 60.9333 146.368 61.0133 146.475 61.12C146.582 61.2267 146.688 61.4933 146.795 61.92C146.928 62.3467 146.995 62.76 146.995 63.16C147.022 63.56 147.048 64.2267 147.075 65.16C147.128 66.2 147.128 66.96 147.075 67.44C147.048 67.9467 146.995 68.2533 146.915 68.36C146.835 68.4933 146.662 68.6133 146.395 68.72C145.728 68.96 145.302 68.9333 145.115 68.64C144.928 68.3467 144.835 67.4933 144.835 66.08C144.835 64.2933 144.782 63.3467 144.675 63.24C144.595 63.1333 143.768 63.2133 142.195 63.48C140.755 63.7733 139.675 63.92 138.955 63.92C138.528 63.92 138.248 63.88 138.115 63.8C137.982 63.72 137.915 63.52 137.915 63.2C137.915 62.6933 138.075 62.32 138.395 62.08C138.715 61.84 139.235 61.72 139.955 61.72C140.835 61.72 141.875 61.5733 143.075 61.28Z" fill="black"/>
<path fill-rule="evenodd" clip-rule="evenodd" d="M77.4836 18.9334C78.1548 19.0485 78.6042 19.6786 78.4875 20.3407C78.1336 22.348 77.4795 24.0231 76.6308 25.4107C86.1597 28.6741 93 37.609 93 48.12C93 55.1697 89.9229 61.5105 85.0213 65.9067L92.8457 75.9553C89.8132 79.1495 80.6952 85.9638 68.4829 87.6674C56.2707 89.371 44.6855 84.1183 40.4194 81.279L40.8425 80.5587C31.6134 77.3463 25 68.6666 25 58.4631C25 50.0977 29.4454 42.7564 36.133 38.6127L34.8658 38.3327C33.6748 38.0694 33.2512 36.6103 34.1205 35.7651L39.3026 30.7268C39.6325 30.4061 39.7987 29.956 39.7554 29.5011L39.0742 22.3552C38.96 21.1565 40.2359 20.3082 41.3194 20.8626L47.7782 24.1673C48.1894 24.3777 48.6747 24.3946 49.0999 24.2133L55.7789 21.3661C56.8993 20.8885 58.1114 21.8234 57.9117 23.0112L57.2646 26.8608C60.6595 25.0899 64.5296 24.0872 68.6372 24.0872C70.5348 24.0872 72.3818 24.3012 74.1547 24.7061C75.0213 23.4798 75.7057 21.9154 76.0569 19.9237C76.1736 19.2616 76.8124 18.8182 77.4836 18.9334Z" fill="white"/>
<path fill-rule="evenodd" clip-rule="evenodd" d="M71.8561 20.3033C71.9499 19.9795 72.0322 19.6275 72.0997 19.2448C72.5965 16.4268 75.3151 14.5396 78.1719 15.0297C81.0286 15.5197 82.9417 18.2015 82.4449 21.0196C82.3013 21.8344 82.1153 22.6143 81.8902 23.3598C90.8833 28.0533 97.0168 37.3761 97.0168 48.1199C97.0168 55.0087 94.4908 61.3195 90.31 66.1941L96.0313 73.5416C97.2292 75.08 97.1218 77.2478 95.7776 78.6637C92.2482 82.3813 82.3359 89.7367 69.0454 91.5907C55.5218 93.4772 42.9403 87.7365 38.173 84.5636C37.6488 84.2147 37.2334 83.7637 36.9371 83.2548C27.5135 78.8793 20.9834 69.4278 20.9834 58.4631C20.9834 50.5272 24.4071 43.382 29.8668 38.3839C29.3286 36.5632 29.7266 34.4738 31.3011 32.9431L35.6464 28.7182L35.0753 22.7261C34.6634 18.4047 39.263 15.3468 43.1689 17.3453L48.5849 20.1164L54.1856 17.7289C57.3245 16.3908 60.6632 18.1282 61.6574 20.9789C63.8923 20.421 66.2312 20.1249 68.6373 20.1249C69.7245 20.1249 70.7986 20.1853 71.8561 20.3033ZM57.836 22.225C57.9272 22.4626 57.9591 22.7298 57.9118 23.0112L57.2647 26.8608C58.6473 26.1395 60.1088 25.5457 61.633 25.0952C63.8513 24.4394 66.2026 24.0871 68.6373 24.0871C70.0355 24.0871 71.4062 24.2033 72.74 24.4265C73.2165 24.5062 73.6882 24.5995 74.1548 24.7061C74.28 24.529 74.4013 24.3449 74.5184 24.1534C74.8724 23.5746 75.1875 22.9289 75.4512 22.2088C75.7042 21.5178 75.9098 20.7582 76.057 19.9237C76.1737 19.2616 76.8125 18.8182 77.4837 18.9333C78.1549 19.0485 78.6043 19.6786 78.4876 20.3407C78.4015 20.829 78.2977 21.2976 78.1776 21.7472C78.0788 22.1171 77.9689 22.4742 77.849 22.8188C77.5153 23.777 77.1032 24.6383 76.6309 25.4107C77.1273 25.5807 77.6164 25.7661 78.0977 25.9663C78.8604 26.2837 79.6034 26.6382 80.3242 27.0277C87.8781 31.1092 93.0001 39.0245 93.0001 48.1199C93.0001 55.1697 89.923 61.5105 85.0214 65.9067L92.8458 75.9552C89.8133 79.1495 80.6953 85.9638 68.483 87.6674C58.7727 89.022 49.4589 85.9786 43.9056 83.2474C43.7968 83.1939 43.6894 83.1405 43.5835 83.0872C42.3667 82.4755 41.3438 81.8842 40.5533 81.3672C40.508 81.3376 40.4634 81.3081 40.4195 81.279L40.8426 80.5587C39.5627 80.1132 38.3331 79.5626 37.1645 78.9173C29.9064 74.9096 25.0001 67.2516 25.0001 58.4631C25.0001 51.8131 27.8093 45.8103 32.3209 41.5465C33.0272 40.8789 33.7753 40.254 34.5608 39.6759C35.0696 39.3015 35.5941 38.9467 36.1331 38.6127L34.8659 38.3327C33.6749 38.0694 33.2513 36.6103 34.1206 35.7651L39.3027 30.7268C39.6326 30.406 39.7988 29.956 39.7555 29.5011L39.0743 22.3552C38.9601 21.1564 40.236 20.3082 41.3195 20.8626L47.7783 24.1673C48.1895 24.3777 48.6748 24.3946 49.1 24.2133L55.7789 21.3661C56.6339 21.0016 57.5423 21.4597 57.836 22.225Z" fill="white"/>
<ellipse cx="48.746" cy="58.0656" rx="23.746" ry="23.4244" fill="#0AA176"/>
<path d="M39.0739 21.9546C38.9595 20.754 40.2314 19.9084 41.3166 20.4636L47.7767 23.769C48.1889 23.9799 48.6743 23.9973 49.0989 23.8162L55.7675 20.9735C56.8904 20.4948 58.1091 21.4393 57.9085 22.6327L56.7223 29.6895C56.646 30.1432 56.7811 30.6077 57.09 30.9536L61.8879 36.3274C62.6981 37.2349 62.1763 38.6641 60.9691 38.8439L53.77 39.916C53.3137 39.9839 52.913 40.2503 52.6779 40.6421L48.9686 46.8221C48.3466 47.8584 46.8079 47.7991 46.2593 46.7177L43.0106 40.3139C42.8015 39.9017 42.4158 39.6038 41.9608 39.5033L34.8849 37.9394C33.6882 37.6749 33.2581 36.2061 34.1294 35.359L39.3033 30.3286C39.6328 30.0082 39.7987 29.5579 39.7552 29.1019L39.0739 21.9546Z" fill="#FBB22E"/>
<path fill-rule="evenodd" clip-rule="evenodd" d="M85.0213 65.5092C89.9229 61.113 93 54.7722 93 47.7224C93 34.4495 82.0924 23.6896 68.6372 23.6896C55.182 23.6896 44.2744 34.4495 44.2744 47.7224C44.2744 53.8798 46.6217 59.4963 50.4819 63.7487L40.4194 80.8815C44.6855 83.7208 56.2707 88.9735 68.4829 87.2699C80.6952 85.5663 89.8132 78.752 92.8457 75.5577L85.0213 65.5092Z" fill="#FAD2D0"/>
<path d="M85.0213 65.5092L84.2011 64.5947C83.7207 65.0255 83.6555 65.7547 84.052 66.2639L85.0213 65.5092ZM50.4819 63.7487L51.5411 64.3708C51.8133 63.9074 51.7526 63.3209 51.3914 62.923L50.4819 63.7487ZM40.4194 80.8815L39.3602 80.2593C39.0302 80.8212 39.1963 81.543 39.7388 81.9041L40.4194 80.8815ZM68.4829 87.2699L68.3132 86.0533L68.4829 87.2699ZM92.8457 75.5577L93.7366 76.4035C94.155 75.9628 94.1883 75.2825 93.815 74.803L92.8457 75.5577ZM91.7715 47.7224C91.7715 54.4058 88.8561 60.4196 84.2011 64.5947L85.8415 66.4237C90.9896 61.8064 94.2284 55.1386 94.2284 47.7224H91.7715ZM68.6372 24.9181C81.4298 24.9181 91.7715 35.1437 91.7715 47.7224H94.2284C94.2284 33.7553 82.755 22.4612 68.6372 22.4612V24.9181ZM45.5028 47.7224C45.5028 35.1437 55.8445 24.9181 68.6372 24.9181V22.4612C54.5194 22.4612 43.0459 33.7553 43.0459 47.7224H45.5028ZM51.3914 62.923C47.7271 58.8863 45.5028 53.5608 45.5028 47.7224H43.0459C43.0459 54.1988 45.5164 60.1063 49.5723 64.5744L51.3914 62.923ZM41.4787 81.5036L51.5411 64.3708L49.4226 63.1266L39.3602 80.2593L41.4787 81.5036ZM68.3132 86.0533C56.4963 87.7017 45.2125 82.5959 41.1001 79.8588L39.7388 81.9041C44.1585 84.8457 56.0451 90.2453 68.6526 88.4866L68.3132 86.0533ZM91.9548 74.7119C89.0759 77.7444 80.2 84.3951 68.3132 86.0533L68.6526 88.4866C81.1903 86.7376 90.5506 79.7595 93.7366 76.4035L91.9548 74.7119ZM84.052 66.2639L91.8765 76.3125L93.815 74.803L85.9905 64.7544L84.052 66.2639Z" fill="#FFBEBA"/>
<path d="M51.2131 69.0172C54.9138 65.5694 62.9628 59.3128 65.5533 61.8682C68.1437 64.4236 65.2963 71.8565 63.5487 75.2535" stroke="#816A5C" stroke-width="2.14976" stroke-linecap="round"/>
<path d="M76.545 75.4056C74.3863 70.7917 71.0248 61.6248 74.8489 61.8682C78.6729 62.1115 82.8156 67.0398 84.409 69.4735" stroke="#816A5C" stroke-width="2.14976" stroke-linecap="round"/>
<path d="M65.3992 29.7737C68.7401 29.9258 75.7919 28.1309 77.2722 19.7347" stroke="#FFBEBA" stroke-width="2.45686" stroke-linecap="round"/>
<path d="M61.1379 45.7562L64.521 48.6167L61.1379 51.9539" stroke="#816A5C" stroke-width="2.14976" stroke-linecap="round" stroke-linejoin="round"/>
<path d="M79.0198 45.7562L75.7302 48.9392L79.0198 51.9539" stroke="#816A5C" stroke-width="2.14976" stroke-linecap="round" stroke-linejoin="round"/>
<path d="M73.5713 53.1981H66.1699C66.1699 55.9867 66.9717 61.564 70.179 61.564C73.3862 61.564 73.7769 55.9867 73.5713 53.1981Z" stroke="#816A5C" stroke-width="2.14976" stroke-linejoin="round"/>
<ellipse cx="81.9197" cy="56.2449" rx="3.38307" ry="1.43025" fill="white"/>
<ellipse cx="57.7551" cy="56.2449" rx="3.38307" ry="1.43025" fill="white"/>
<defs>
<filter id="filter0_d_58_627" x="0" y="0" width="189" height="124" filterUnits="userSpaceOnUse" color-interpolation-filters="sRGB">
<feFlood flood-opacity="0" result="BackgroundImageFix"/>
<feColorMatrix in="SourceAlpha" type="matrix" values="0 0 0 0 0 0 0 0 0 0 0 0 0 0 0 0 0 0 127 0" result="hardAlpha"/>
<feOffset dx="4" dy="4"/>
<feGaussianBlur stdDeviation="5"/>
<feComposite in2="hardAlpha" operator="out"/>
<feColorMatrix type="matrix" values="0 0 0 0 0 0 0 0 0 0 0 0 0 0 0 0 0 0 0.2 0"/>
<feBlend mode="normal" in2="BackgroundImageFix" result="effect1_dropShadow_58_627"/>
<feBlend mode="normal" in="SourceGraphic" in2="effect1_dropShadow_58_627" result="shape"/>
</filter>
</defs>
</svg>
