<svg width="189" height="124" viewBox="0 0 189 124" fill="none" xmlns="http://www.w3.org/2000/svg">
<g filter="url(#filter0_d_58_494)">
<path fill-rule="evenodd" clip-rule="evenodd" d="M22 6C13.1634 6 6 13.1634 6 22V85C6 93.8366 13.1634 101 22 101H83.0718L87.4019 108.5C88.5566 110.5 91.4434 110.5 92.5981 108.5L96.9282 101H159C167.837 101 175 93.8366 175 85V22C175 13.1634 167.837 6 159 6H22Z" fill="white"/>
</g>
<path d="M111.773 41.12C112.226 40.56 112.666 40.64 113.093 41.36C113.466 42 113.626 42.8533 113.573 43.92L113.453 45.44L115.133 45.24C116.28 45.08 117.106 44.9067 117.613 44.72C118.2 44.5067 118.68 44.5333 119.053 44.8C119.426 45.04 119.586 45.44 119.533 46C119.506 46.16 119.466 46.2933 119.413 46.4C119.386 46.48 119.346 46.56 119.293 46.64C119.24 46.72 119.12 46.7867 118.933 46.84C118.746 46.8667 118.56 46.8933 118.373 46.92C118.186 46.9467 117.853 46.9733 117.373 47C116.066 47.1067 115.026 47.2933 114.253 47.56C113.746 47.6933 112.413 48 110.253 48.48C108.093 48.9333 106.906 49.16 106.693 49.16C106.48 49.16 106.346 48.9467 106.293 48.52C106.266 48.0667 106.346 47.7067 106.533 47.44C106.746 47.12 107.48 46.8533 108.733 46.64C109.186 46.56 109.506 46.5067 109.693 46.48C109.88 46.4267 110.106 46.36 110.373 46.28C110.64 46.2 110.813 46.1467 110.893 46.12C110.973 46.0933 111.08 46 111.213 45.84C111.346 45.68 111.413 45.5733 111.413 45.52C111.44 45.4667 111.466 45.32 111.493 45.08C111.52 44.8133 111.533 44.6133 111.533 44.48C111.533 44.32 111.52 44.04 111.493 43.64C111.44 42.2533 111.533 41.4133 111.773 41.12ZM113.773 48.68C114.786 48.36 115.826 48.5467 116.893 49.24C117.32 49.5067 117.64 49.8133 117.853 50.16C118.093 50.48 118.306 50.9467 118.493 51.56C118.813 52.68 118.973 53.5467 118.973 54.16C118.973 54.8267 118.693 55.52 118.133 56.24C117.573 56.9333 116.853 57.5333 115.973 58.04C115.093 58.52 114.173 58.8 113.213 58.88C112.253 58.9333 111.386 58.8133 110.613 58.52C109.866 58.2 109.2 57.7733 108.613 57.24C108.053 56.7067 107.733 56.08 107.653 55.36C107.573 54.6133 107.72 53.8267 108.093 53C108.413 52.3333 109.106 51.5333 110.173 50.6C111.266 49.64 112.066 49.1067 112.573 49C112.706 48.9733 112.866 48.9467 113.053 48.92C113.24 48.8667 113.386 48.8267 113.493 48.8C113.626 48.7467 113.72 48.7067 113.773 48.68ZM116.253 50.92C115.826 50.4933 115.213 50.3333 114.413 50.44C113.613 50.5467 112.813 50.9067 112.013 51.52C110.973 52.32 110.306 53.16 110.013 54.04C109.746 54.8933 109.893 55.6 110.453 56.16C111.04 56.72 111.933 57 113.133 57C113.88 57 114.733 56.56 115.693 55.68C116.68 54.7733 117.093 54.0533 116.933 53.52C116.8 52.9867 116.733 52.5067 116.733 52.08C116.733 51.6 116.573 51.2133 116.253 50.92ZM123.173 51.84C123.466 51.0933 123.84 50.72 124.293 50.72C124.773 50.72 125.053 50.9333 125.133 51.36C125.24 51.7867 125.213 52.64 125.053 53.92C124.866 55.3867 124.853 56.1733 125.013 56.28C125.146 56.3867 125.866 56.32 127.173 56.08C128.24 55.8933 128.973 55.88 129.373 56.04C129.8 56.2 129.973 56.5733 129.893 57.16C129.84 57.4267 129.666 57.6267 129.373 57.76C129.106 57.8667 128.466 57.9867 127.453 58.12C125.96 58.3333 125.026 58.5333 124.653 58.72C124.466 58.8267 124.346 59.12 124.293 59.6C124.266 60.0533 124.32 60.88 124.453 62.08C124.533 63.5467 124.546 64.44 124.493 64.76C124.466 65.0533 124.28 65.2533 123.933 65.36C123.373 65.52 123.013 65.3733 122.853 64.92C122.666 64.3333 122.586 62.32 122.613 58.88C122.666 54.9867 122.853 52.64 123.173 51.84ZM112.413 61.36C112.626 60.5333 112.946 60.1467 113.373 60.2C113.88 60.2533 114.186 60.88 114.293 62.08L114.413 63.16L115.973 63.04C117.466 62.88 118.466 62.8267 118.973 62.88C119.506 62.9333 119.866 63.1067 120.053 63.4C120.373 63.96 120.04 64.3733 119.053 64.64C118.413 64.8267 117.36 65 115.893 65.16C113.6 65.4267 111.866 65.7867 110.693 66.24C109.893 66.5067 109.36 66.6533 109.093 66.68C108.853 66.7067 108.666 66.6267 108.533 66.44C108.346 66.1467 108.253 65.9067 108.253 65.72C108.253 65.4533 108.573 65.1067 109.213 64.68C109.88 64.2533 110.48 64 111.013 63.92C111.52 63.8667 111.84 63.7867 111.973 63.68C112.133 63.5733 112.186 63.4 112.133 63.16C112.106 62.68 112.2 62.08 112.413 61.36ZM146.558 42.36C146.825 42.12 147.025 42 147.158 42C147.318 41.9733 147.545 42.0533 147.838 42.24C148.025 42.3467 148.131 42.6 148.158 43C148.185 43.4 148.158 44.1333 148.078 45.2L147.838 47.92H149.438C150.505 47.92 151.238 47.8267 151.638 47.64C152.038 47.4267 152.451 47.3867 152.878 47.52C153.305 47.6533 153.571 47.92 153.678 48.32C153.811 48.7733 153.691 49.1333 153.318 49.4C152.945 49.6667 152.371 49.8 151.598 49.8C150.771 49.8 149.891 49.9067 148.958 50.12L147.598 50.48L147.518 53.24L147.398 55.92H146.478H145.518L145.558 53.88C145.585 51.2933 145.691 48.7867 145.878 46.36C146.091 43.9333 146.318 42.6 146.558 42.36ZM131.998 43.28C132.185 42.8 132.718 42.7333 133.598 43.08C133.785 43.16 133.891 43.36 133.918 43.68C133.971 44 133.958 44.7067 133.878 45.8C133.771 47.5333 133.811 48.7067 133.998 49.32L134.278 50.28H138.198C140.118 50.28 141.238 50.3067 141.558 50.36C141.905 50.4133 142.105 50.6267 142.158 51C142.238 51.5067 142.145 51.84 141.878 52C141.585 52.1867 138.918 52.32 133.878 52.4L132.318 52.44L132.078 48.08C131.918 45.2 131.891 43.6 131.998 43.28ZM141.918 58.6C143.278 58.2 144.305 58 144.998 58C145.611 57.9733 146.225 58.1067 146.838 58.4C147.478 58.6933 147.865 59.0267 147.998 59.4C148.185 59.9067 148.251 61.2667 148.198 63.48C148.145 65.6667 148.025 66.8533 147.838 67.04C147.598 67.2267 146.118 67.48 143.398 67.8C140.678 68.12 139.105 68.2267 138.678 68.12C138.518 68.0667 138.345 67.9467 138.158 67.76C137.998 67.5733 137.865 67.3867 137.758 67.2C137.571 66.6933 137.478 65.7333 137.478 64.32C137.505 62.9067 137.625 61.7867 137.838 60.96C137.998 60.4267 138.145 60.0667 138.278 59.88C138.438 59.6667 138.691 59.5333 139.038 59.48C139.438 59.4 140.398 59.1067 141.918 58.6ZM145.838 60.36L144.598 60.28C143.825 60.2533 142.931 60.3867 141.918 60.68C140.931 60.9733 140.305 61.28 140.038 61.6C139.798 61.92 139.611 62.6933 139.478 63.92L139.318 65.88L141.798 65.64C142.065 65.64 142.425 65.6267 142.878 65.6C143.491 65.5467 143.918 65.5067 144.158 65.48C144.425 65.48 144.705 65.44 144.998 65.36C145.291 65.28 145.465 65.2133 145.518 65.16C145.598 65.1333 145.678 65.0267 145.758 64.84C145.838 64.6267 145.878 64.4533 145.878 64.32C145.878 64.16 145.865 63.8933 145.838 63.52C145.838 63.2267 145.838 62.9867 145.838 62.8V60.36Z" fill="black"/>
<path fill-rule="evenodd" clip-rule="evenodd" d="M39.345 13.9556C38.7123 13.7958 38.0673 14.1693 37.9044 14.7898C37.7415 15.4103 38.1223 16.0428 38.755 16.2025L44.885 17.7504L41.219 21.8148C40.841 22.2339 40.8219 22.8579 41.1735 23.2985L42.1679 24.5444C35.771 28.0669 31.4846 34.5309 31.4846 41.9219C31.4846 45.6681 32.5858 49.1762 34.5048 52.1837C33.803 51.99 32.989 52.3233 32.7054 53.0891L30.3581 59.4277C30.2058 59.8389 29.873 60.1615 29.452 60.3056L22.9927 62.5172C21.8917 62.8943 21.6432 64.3139 22.554 65.0242L27.9473 69.2298C28.2916 69.4983 28.4955 69.9039 28.5035 70.3362L28.628 77.1242C28.6491 78.2743 29.9602 78.9399 30.9319 78.2939L36.581 74.5383C36.7446 74.4296 36.9263 74.3554 37.1149 74.3175C36.7553 76.2811 36.5507 78.2998 36.5764 80.3096C39.1255 81.4656 46.0337 83.1153 56.6603 82.7408C60.1792 84.8612 64.3099 86.0823 68.728 86.0823C81.5836 86.0823 92.0051 75.7444 92.0051 62.9919C92.0051 52.4291 84.8552 43.5228 75.0945 40.7757C74.4527 30.1506 64.9434 21.7178 53.3068 21.7178C50.1098 21.7178 47.0733 22.3543 44.3372 23.4979L43.6436 22.6288L47.9376 17.8681C48.2104 17.5656 48.3032 17.1458 48.1826 16.7596C48.062 16.3735 47.7453 16.0767 47.3465 15.976L39.345 13.9556ZM38.0884 56.4022C39.0308 57.2514 40.0558 58.0224 41.1512 58.7038L40.5042 58.6795C40.0593 58.6628 39.6464 58.45 39.3803 58.1003L38.0884 56.4022Z" fill="white"/>
<path fill-rule="evenodd" clip-rule="evenodd" d="M47.9376 17.8681C48.2105 17.5656 48.3033 17.1458 48.1826 16.7596C48.062 16.3735 47.7453 16.0767 47.3465 15.976L39.345 13.9556C38.7123 13.7958 38.0674 14.1693 37.9044 14.7898C37.7415 15.4103 38.1224 16.0428 38.7551 16.2026L44.8851 17.7504L41.2191 21.8148C41.0668 21.9837 40.9727 22.1858 40.9377 22.3958C40.8859 22.707 40.9636 23.0354 41.1736 23.2985L42.168 24.5444C41.6895 24.8079 41.2229 25.0878 40.769 25.3833C40.1085 25.8133 39.4749 26.2764 38.8711 26.7699C34.3414 30.472 31.4846 35.8881 31.4846 41.9219C31.4846 44.192 31.889 46.3747 32.6347 48.4116C33.1196 49.7359 33.7487 50.9987 34.5049 52.1837C33.8031 51.99 32.989 52.3233 32.7054 53.0891L30.3582 59.4277C30.2059 59.8389 29.873 60.1615 29.4521 60.3056L22.9928 62.5173L21.676 58.8185L27.0099 56.9922L28.9505 51.7518C29.0608 51.454 29.1926 51.1743 29.3432 50.913C28.1496 48.1368 27.4897 45.1011 27.4897 41.9219C27.4897 34.3312 31.2303 27.6309 36.9708 23.2419C36.8221 22.1223 37.0552 20.9663 37.6642 19.9717C34.9518 19.2338 33.3309 16.4976 34.0358 13.8129C34.7488 11.0971 37.5718 9.46234 40.3411 10.1616L48.3426 12.182C50.0881 12.6228 51.4743 13.922 52.0023 15.612C52.2294 16.3392 52.2837 17.0937 52.1766 17.8228C52.5515 17.8077 52.9283 17.8001 53.3068 17.8001C65.9148 17.8001 76.684 26.3285 78.7627 37.8717C88.8764 41.8366 96 51.6028 96 62.9919C96 77.8656 83.833 90 68.7281 90C63.9886 90 59.5238 88.7995 55.6366 86.6897C45.2846 86.9234 38.1044 85.3188 34.8997 83.8655C33.9465 83.4333 33.2239 82.6608 32.8549 81.7341C29.3023 83.7777 24.7099 81.339 24.6339 77.1947L24.5307 71.5708L20.0677 68.0906C16.6769 65.4465 17.6263 60.2051 21.676 58.8185L22.9928 62.5173C21.8917 62.8943 21.6432 64.314 22.554 65.0242L27.9473 69.2298C28.2917 69.4983 28.4956 69.9039 28.5035 70.3362L28.6281 77.1242C28.6492 78.2743 29.9603 78.94 30.932 78.294L36.5811 74.5383C36.7446 74.4296 36.9263 74.3555 37.115 74.3175C37.0666 74.5818 37.021 74.847 36.9784 75.1131C36.759 76.4835 36.619 77.8762 36.5833 79.27C36.5744 79.6165 36.572 79.9632 36.5764 80.3096C39.1255 81.4656 46.0338 83.1153 56.6604 82.7408C60.1793 84.8613 64.3099 86.0823 68.7281 86.0823C81.5836 86.0823 92.0051 75.7444 92.0051 62.9919C92.0051 52.4291 84.8553 43.5228 75.0946 40.7757C74.4527 30.1506 64.9435 21.7178 53.3068 21.7178C52.0175 21.7178 50.7543 21.8213 49.5263 22.0199C48.2467 22.2268 47.0054 22.5369 45.8128 22.9407C45.678 22.9863 45.5439 23.0331 45.4104 23.0811C45.2121 23.1524 45.0153 23.2262 44.82 23.3027C44.7284 23.3385 44.6371 23.3749 44.5462 23.4118C44.4764 23.4402 44.4067 23.4689 44.3372 23.4979L43.6436 22.6288L47.9376 17.8681ZM41.1512 58.7039C40.9379 58.5711 40.7272 58.435 40.5193 58.2956C40.276 58.1324 40.0364 57.9647 39.8008 57.7926C39.2041 57.3566 38.6325 56.8925 38.0884 56.4023L39.3803 58.1003C39.6464 58.45 40.0593 58.6628 40.5043 58.6795L41.1512 58.7039Z" fill="white"/>
<path d="M32.7088 53.3996C33.1137 52.3058 34.5684 52.092 35.2764 53.0223L39.3782 58.4124C39.6473 58.766 40.0606 58.9807 40.5043 58.9975L47.2883 59.2537C48.4635 59.2981 49.1242 60.6273 48.448 61.5869L44.5702 67.0894C44.3129 67.4546 44.2349 67.9168 44.3579 68.347L46.2088 74.8182C46.5308 75.9441 45.4804 76.9773 44.3587 76.6379L37.8425 74.6661C37.4193 74.5381 36.9615 74.6054 36.594 74.8496L30.936 78.6102C29.962 79.2575 28.6541 78.5709 28.6325 77.4008L28.5078 70.6759C28.4995 70.2289 28.2894 69.809 27.9362 69.5336L22.6134 65.383C21.6851 64.6591 21.9279 63.1971 23.0396 62.8167L29.4565 60.6208C29.8762 60.4772 30.2088 60.1528 30.3627 59.7371L32.7088 53.3996Z" fill="#FBB22E"/>
<path fill-rule="evenodd" clip-rule="evenodd" d="M64.0931 59.8039C70.6845 56.3273 75.1289 49.7624 75.1289 42.2365C75.1289 31.078 65.3587 22.0323 53.3066 22.0323C41.2545 22.0323 31.4844 31.078 31.4844 42.2365C31.4844 49.8193 35.9962 56.4264 42.6699 59.8822C40.2249 64.022 36.4714 72.3974 36.5764 80.6242C39.9709 82.1635 51.0954 84.5784 68.4368 81.923L64.0931 59.8039Z" fill="#FAD2D0"/>
<path d="M64.0931 59.8039L63.5405 58.7562C63.0778 59.0003 62.83 59.5189 62.9308 60.0322L64.0931 59.8039ZM42.6699 59.8822L43.6898 60.4846C43.8554 60.2042 43.8983 59.8681 43.8084 59.5551C43.7185 59.2422 43.5037 58.9801 43.2146 58.8303L42.6699 59.8822ZM36.5764 80.6242L35.392 80.6393C35.3978 81.0986 35.6688 81.5132 36.0872 81.7029L36.5764 80.6242ZM68.4368 81.923L68.6161 83.0939C68.9352 83.045 69.2205 82.8681 69.406 82.604C69.5916 82.3399 69.6613 82.0115 69.5991 81.6948L68.4368 81.923ZM73.9444 42.2365C73.9444 49.2732 69.7893 55.4602 63.5405 58.7562L64.6457 60.8516C71.5796 57.1943 76.3134 50.2516 76.3134 42.2365H73.9444ZM53.3066 23.2169C64.7921 23.2169 73.9444 31.8165 73.9444 42.2365H76.3134C76.3134 30.3396 65.9253 20.8478 53.3066 20.8478V23.2169ZM32.6689 42.2365C32.6689 31.8165 41.8211 23.2169 53.3066 23.2169V20.8478C40.6879 20.8478 30.2999 30.3396 30.2999 42.2365H32.6689ZM43.2146 58.8303C36.887 55.5538 32.6689 49.3262 32.6689 42.2365H30.2999C30.2999 50.3123 35.1054 57.299 42.1252 60.934L43.2146 58.8303ZM37.7608 80.6091C37.6598 72.6944 41.294 64.5412 43.6898 60.4846L41.65 59.2798C39.1559 63.5028 35.283 72.1004 35.392 80.6393L37.7608 80.6091ZM68.2575 80.7521C51.0536 83.3865 40.1814 80.9583 37.0656 79.5454L36.0872 81.7029C39.7605 83.3687 51.1373 85.7703 68.6161 83.0939L68.2575 80.7521ZM62.9308 60.0322L67.2745 82.1513L69.5991 81.6948L65.2554 59.5757L62.9308 60.0322Z" fill="#FFBEBA"/>
<ellipse cx="68.7282" cy="63.3062" rx="23.2771" ry="23.0904" fill="#08A075"/>
<path d="M53.016 63.7394C51.8522 59.9294 46.7118 60.2277 44.2871 60.8531L45.3055 74.9959C48.3606 72.8312 54.1799 67.5493 53.016 63.7394Z" fill="#FAD2D0"/>
<path d="M44.8691 60.8531C47.2938 60.2277 52.4342 59.9294 53.598 63.7394C54.7619 67.5493 48.9426 72.8312 45.8875 74.9959" stroke="#816A5C" stroke-width="2.36902" stroke-linecap="round"/>
<path d="M45.7417 41.3701L48.6513 38.4836" stroke="#816A5C" stroke-width="2.36902" stroke-linecap="round"/>
<path d="M38.1768 41.6584L35.8491 39.3492" stroke="#816A5C" stroke-width="2.36902" stroke-linecap="round"/>
<path d="M38.6133 49.5957C39.5347 47.7676 42.0176 45.2082 44.578 49.5957" stroke="#816A5C" stroke-width="2.36902" stroke-linecap="round"/>
<path d="M47.6335 29.825L42.1052 22.8979L47.0515 17.4139L39.05 15.3935" stroke="#FFBEBA" stroke-width="2.36902" stroke-linecap="round" stroke-linejoin="round"/>
<defs>
<filter id="filter0_d_58_494" x="0" y="0" width="189" height="124" filterUnits="userSpaceOnUse" color-interpolation-filters="sRGB">
<feFlood flood-opacity="0" result="BackgroundImageFix"/>
<feColorMatrix in="SourceAlpha" type="matrix" values="0 0 0 0 0 0 0 0 0 0 0 0 0 0 0 0 0 0 127 0" result="hardAlpha"/>
<feOffset dx="4" dy="4"/>
<feGaussianBlur stdDeviation="5"/>
<feComposite in2="hardAlpha" operator="out"/>
<feColorMatrix type="matrix" values="0 0 0 0 0 0 0 0 0 0 0 0 0 0 0 0 0 0 0.2 0"/>
<feBlend mode="normal" in2="BackgroundImageFix" result="effect1_dropShadow_58_494"/>
<feBlend mode="normal" in="SourceGraphic" in2="effect1_dropShadow_58_494" result="shape"/>
</filter>
</defs>
</svg>
