<svg width="189" height="124" viewBox="0 0 189 124" fill="none" xmlns="http://www.w3.org/2000/svg">
<g filter="url(#filter0_d_58_633)">
<path fill-rule="evenodd" clip-rule="evenodd" d="M22 6C13.1634 6 6 13.1634 6 22V85C6 93.8366 13.1634 101 22 101H148.072L152.402 108.5C153.557 110.5 156.443 110.5 157.598 108.5L162.102 100.7C169.454 99.2554 175 92.7754 175 85V22C175 13.1634 167.837 6 159 6H22Z" fill="white"/>
</g>
<path d="M124.974 44.2C125.081 43.9333 125.401 43.8133 125.934 43.84C126.494 43.8667 126.827 44.0133 126.934 44.28C127.041 44.5467 127.001 45.5333 126.814 47.24C126.601 48.68 126.427 50.1733 126.294 51.72C126.187 53.16 125.987 54.1733 125.694 54.76C125.427 55.1867 125.174 55.4667 124.934 55.6C124.694 55.7067 124.214 55.8 123.494 55.88C122.187 56.0133 120.827 56.1733 119.414 56.36C118.081 56.52 117.187 56.5733 116.734 56.52C116.307 56.4667 116.014 56.24 115.854 55.84C115.721 55.52 115.587 53.6133 115.454 50.12C115.401 47.8533 115.401 46.4 115.454 45.76C115.507 45.0933 115.641 44.6667 115.854 44.48C116.627 43.84 117.094 44.28 117.254 45.8C117.281 46.12 117.294 46.4667 117.294 46.84C117.294 47.9333 117.374 48.56 117.534 48.72C117.694 48.8533 118.267 48.8 119.254 48.56C119.974 48.3467 121.067 48.2 122.534 48.12L124.654 48L124.774 46.32C124.801 45.3067 124.867 44.6 124.974 44.2ZM123.694 50.28C122.867 49.9867 121.094 50.2133 118.374 50.96C117.947 51.0933 117.681 51.24 117.574 51.4C117.494 51.56 117.494 51.92 117.574 52.48C117.601 53.28 117.681 53.7733 117.814 53.96C118.001 54.2533 118.921 54.2933 120.574 54.08C122.254 53.8667 123.334 53.56 123.814 53.16C124.107 52.9467 124.241 52.44 124.214 51.64C124.187 50.84 124.014 50.3867 123.694 50.28ZM121.694 58.68C122.201 58.44 122.547 58.3733 122.734 58.48C122.894 58.6133 122.907 59.3467 122.774 60.68L122.574 62.68L126.054 62.48C127.761 62.3733 128.761 62.3467 129.054 62.4C129.374 62.4267 129.587 62.6267 129.694 63C129.801 63.32 129.787 63.6 129.654 63.84C129.521 64.0533 129.281 64.2267 128.934 64.36C128.614 64.4933 128.201 64.56 127.694 64.56C126.841 64.56 125.254 64.7333 122.934 65.08C120.614 65.4533 119.054 65.7733 118.254 66.04C117.347 66.3333 116.747 66.36 116.454 66.12C115.974 65.72 115.894 65.2667 116.214 64.76C116.561 64.2267 117.107 63.9467 117.854 63.92C118.334 63.92 118.934 63.7733 119.654 63.48C120.134 63.2933 120.427 63.12 120.534 62.96C120.641 62.8 120.654 62.48 120.574 62C120.467 61.2533 120.521 60.5733 120.734 59.96C120.947 59.32 121.267 58.8933 121.694 58.68ZM137.221 40.24C137.941 40.16 138.968 40.1867 140.301 40.32C141.661 40.4267 142.448 40.5867 142.661 40.8C142.955 40.9867 143.061 41.3067 142.981 41.76C142.928 42.1067 142.675 42.3067 142.221 42.36C141.795 42.3867 141.035 42.2933 139.941 42.08C139.381 41.9733 138.461 42.04 137.181 42.28C135.928 42.4933 135.088 42.7333 134.661 43C134.395 43.2133 134.181 43.7867 134.021 44.72L133.821 46.12L135.221 45.84C136.235 45.6533 137.475 45.5867 138.941 45.64C140.435 45.6667 141.315 45.8 141.581 46.04C141.955 46.3333 142.115 46.6667 142.061 47.04C142.035 47.4133 141.821 47.6533 141.421 47.76C141.048 47.8667 140.435 47.8133 139.581 47.6C138.381 47.28 136.781 47.5067 134.781 48.28C134.541 48.36 134.355 48.4533 134.221 48.56C134.115 48.6667 134.035 48.8133 133.981 49C133.928 49.16 133.901 49.3867 133.901 49.68V50.72L135.741 50.56C136.995 50.4267 137.755 50.2933 138.021 50.16C138.395 50.0267 138.981 49.8533 139.781 49.64C140.368 49.48 140.768 49.4133 140.981 49.44C141.221 49.4667 141.475 49.6 141.741 49.84C142.595 50.5867 142.421 51.1467 141.221 51.52C140.848 51.6267 140.341 51.7333 139.701 51.84C139.168 51.92 137.981 52.2 136.141 52.68C134.675 53.0533 133.675 53.24 133.141 53.24C132.635 53.24 132.315 53.0667 132.181 52.72C132.075 52.3467 131.955 50.5733 131.821 47.4C131.768 45.2667 131.768 43.92 131.821 43.36C131.875 42.8 132.021 42.4133 132.261 42.2C132.608 41.9067 133.355 41.5333 134.501 41.08C135.675 40.6267 136.581 40.3467 137.221 40.24ZM136.261 54.24C136.448 53.9733 136.795 53.88 137.301 53.96C137.568 53.9867 137.755 54.04 137.861 54.12C137.968 54.1733 138.035 54.2933 138.061 54.48C138.115 54.64 138.141 54.92 138.141 55.32C138.141 55.96 138.221 56.4133 138.381 56.68C138.568 56.92 138.861 56.9867 139.261 56.88C139.528 56.7733 140.141 56.6533 141.101 56.52C142.061 56.3867 142.808 56.3067 143.341 56.28C143.795 56.2533 144.141 56.4267 144.381 56.8C144.648 57.1467 144.661 57.5067 144.421 57.88C144.181 58.2533 143.395 58.5067 142.061 58.64C140.995 58.72 139.381 58.9733 137.221 59.4C136.981 59.4533 136.635 59.52 136.181 59.6C134.261 59.92 133.128 60.0933 132.781 60.12C132.461 60.1467 132.261 60.04 132.181 59.8C132.155 59.7733 132.141 59.7467 132.141 59.72C131.981 59.2933 132.021 58.9333 132.261 58.64C132.395 58.4 132.621 58.2267 132.941 58.12C133.288 57.9867 134.061 57.7867 135.261 57.52C135.528 57.4667 135.715 57.4 135.821 57.32C135.928 57.2133 135.995 57.08 136.021 56.92C136.048 56.7333 136.061 56.4267 136.061 56C136.035 55.12 136.101 54.5333 136.261 54.24ZM136.341 61.68C137.168 61.3333 138.181 61.16 139.381 61.16C139.888 61.1333 140.301 61.1467 140.621 61.2C140.941 61.2533 141.221 61.3333 141.461 61.44C141.728 61.5467 142.021 61.7067 142.341 61.92C143.115 62.5067 143.608 63.0933 143.821 63.68C144.061 64.2667 144.088 65.0133 143.901 65.92C143.688 66.88 143.168 67.76 142.341 68.56C141.728 69.1467 141.261 69.4933 140.941 69.6C140.621 69.7067 139.915 69.76 138.821 69.76C137.808 69.76 137.115 69.7067 136.741 69.6C136.368 69.52 135.928 69.2933 135.421 68.92C134.941 68.5467 134.608 68.2133 134.421 67.92C134.261 67.6267 134.141 67.1467 134.061 66.48C133.928 65.3867 134.061 64.4133 134.461 63.56C134.861 62.68 135.488 62.0533 136.341 61.68ZM141.421 63.76C140.701 62.96 139.515 62.8267 137.861 63.36C137.248 63.52 136.808 63.8 136.541 64.2C136.275 64.5733 136.141 65.12 136.141 65.84C136.141 66.3733 136.208 66.76 136.341 67C136.475 67.2667 136.715 67.4533 137.061 67.56C137.408 67.6667 137.941 67.72 138.661 67.72C139.435 67.72 139.955 67.6667 140.221 67.56C140.515 67.48 140.808 67.2533 141.101 66.88C141.661 66.2133 141.955 65.6267 141.981 65.12C142.035 64.64 141.848 64.1867 141.421 63.76Z" fill="black"/>
<ellipse cx="57" cy="67" rx="38" ry="16" fill="white"/>
<ellipse cx="57.5067" cy="50" rx="32.4267" ry="31" fill="white"/>
<mask id="path-5-inside-1_58_633" fill="white">
<path fill-rule="evenodd" clip-rule="evenodd" d="M84.4125 59.1588C85.202 56.5774 85.6266 53.838 85.6266 51C85.6266 35.536 73.0199 23 57.4687 23C41.9176 23 29.3109 35.536 29.3109 51C29.3109 53.995 29.7838 56.8802 30.6594 59.5857C27.7609 61.5161 26.0928 63.7798 26.0928 66.2004C26.0928 73.1411 39.8077 78.7916 56.9171 78.9947C57.1005 78.9982 57.2844 79 57.4687 79C57.5023 79 57.5359 78.9999 57.5694 78.9998C57.6698 79.0002 57.7703 79.0004 57.8709 79.0004C75.4215 79.0004 89.649 73.2696 89.649 66.2004C89.649 63.599 87.7224 61.1788 84.4125 59.1588Z"/>
</mask>
<path fill-rule="evenodd" clip-rule="evenodd" d="M84.4125 59.1588C85.202 56.5774 85.6266 53.838 85.6266 51C85.6266 35.536 73.0199 23 57.4687 23C41.9176 23 29.3109 35.536 29.3109 51C29.3109 53.995 29.7838 56.8802 30.6594 59.5857C27.7609 61.5161 26.0928 63.7798 26.0928 66.2004C26.0928 73.1411 39.8077 78.7916 56.9171 78.9947C57.1005 78.9982 57.2844 79 57.4687 79C57.5023 79 57.5359 78.9999 57.5694 78.9998C57.6698 79.0002 57.7703 79.0004 57.8709 79.0004C75.4215 79.0004 89.649 73.2696 89.649 66.2004C89.649 63.599 87.7224 61.1788 84.4125 59.1588Z" fill="#FAD2D0"/>
<path d="M84.4125 59.1588L81.5437 58.2814L80.863 60.5071L82.8496 61.7196L84.4125 59.1588ZM30.6594 59.5857L32.3223 62.0827L34.2131 60.8234L33.5136 58.662L30.6594 59.5857ZM56.9171 78.9947L56.9744 75.9953L56.9635 75.9951L56.9527 75.9949L56.9171 78.9947ZM57.5694 78.9998L57.5807 75.9998L57.5697 75.9998L57.5588 75.9998L57.5694 78.9998ZM82.6266 51C82.6266 53.5373 82.2472 55.9811 81.5437 58.2814L87.2813 60.0362C88.1568 57.1737 88.6266 54.1388 88.6266 51H82.6266ZM57.4687 26C71.3789 26 82.6266 37.2088 82.6266 51H88.6266C88.6266 33.8633 74.6608 20 57.4687 20V26ZM32.3109 51C32.3109 37.2088 43.5585 26 57.4687 26V20C40.2767 20 26.3109 33.8633 26.3109 51H32.3109ZM33.5136 58.662C32.7334 56.2511 32.3109 53.6775 32.3109 51H26.3109C26.3109 54.3126 26.8342 57.5093 27.8051 60.5094L33.5136 58.662ZM29.0928 66.2004C29.0928 65.2677 29.7535 63.7935 32.3223 62.0827L28.9964 57.0888C25.7683 59.2388 23.0928 62.2919 23.0928 66.2004H29.0928ZM56.9527 75.9949C48.678 75.8967 41.368 74.4774 36.2368 72.3524C33.6638 71.2869 31.7837 70.1037 30.5936 68.9474C29.4125 67.7999 29.0928 66.8733 29.0928 66.2004H23.0928C23.0928 68.9979 24.4874 71.3803 26.4126 73.2507C28.3286 75.1123 30.9466 76.6558 33.9411 77.8959C39.9446 80.3821 48.0468 81.8896 56.8814 81.9945L56.9527 75.9949ZM57.4687 76C57.3036 76 57.1388 75.9984 56.9744 75.9953L56.8597 81.9942C57.0623 81.9981 57.2653 82 57.4687 82V76ZM57.5588 75.9998C57.5289 76 57.4989 76 57.4687 76V82C57.5057 82 57.5428 81.9999 57.58 81.9998L57.5588 75.9998ZM57.8709 76.0004C57.774 76.0004 57.6773 76.0002 57.5807 75.9998L57.5581 81.9998C57.6623 82.0002 57.7666 82.0004 57.8709 82.0004V76.0004ZM86.649 66.2004C86.649 66.8849 86.3171 67.8349 85.0829 69.0102C83.8415 70.1924 81.8854 71.3952 79.2206 72.4686C73.9069 74.6089 66.3601 76.0004 57.8709 76.0004V82.0004C66.9323 82.0004 75.2745 80.5265 81.4623 78.0341C84.5482 76.7911 87.2459 75.2358 89.2206 73.3552C91.2026 71.4678 92.649 69.0505 92.649 66.2004H86.649ZM82.8496 61.7196C85.865 63.5598 86.649 65.1932 86.649 66.2004H92.649C92.649 62.0048 89.5797 58.7978 85.9753 56.598L82.8496 61.7196Z" fill="#FFBEBA" mask="url(#path-5-inside-1_58_633)"/>
<path d="M46 67H72" stroke="#816A5C" stroke-width="2" stroke-linecap="round"/>
<path d="M69.5 56L74.5 56" stroke="#816A5C" stroke-width="3" stroke-linecap="round"/>
<path d="M41.5 56L46.5 56" stroke="#816A5C" stroke-width="3" stroke-linecap="round"/>
<defs>
<filter id="filter0_d_58_633" x="0" y="0" width="189" height="124" filterUnits="userSpaceOnUse" color-interpolation-filters="sRGB">
<feFlood flood-opacity="0" result="BackgroundImageFix"/>
<feColorMatrix in="SourceAlpha" type="matrix" values="0 0 0 0 0 0 0 0 0 0 0 0 0 0 0 0 0 0 127 0" result="hardAlpha"/>
<feOffset dx="4" dy="4"/>
<feGaussianBlur stdDeviation="5"/>
<feComposite in2="hardAlpha" operator="out"/>
<feColorMatrix type="matrix" values="0 0 0 0 0 0 0 0 0 0 0 0 0 0 0 0 0 0 0.2 0"/>
<feBlend mode="normal" in2="BackgroundImageFix" result="effect1_dropShadow_58_633"/>
<feBlend mode="normal" in="SourceGraphic" in2="effect1_dropShadow_58_633" result="shape"/>
</filter>
</defs>
</svg>
