<svg width="189" height="124" viewBox="0 0 189 124" fill="none" xmlns="http://www.w3.org/2000/svg">
<g filter="url(#filter0_d_58_621)">
<path fill-rule="evenodd" clip-rule="evenodd" d="M22 6C13.1634 6 6 13.1634 6 22V85C6 93.8366 13.1634 101 22 101H50.0718L54.4019 108.5C55.5566 110.5 58.4434 110.5 59.5981 108.5L63.9282 101H159C167.837 101 175 93.8366 175 85V22C175 13.1634 167.837 6 159 6H22Z" fill="white"/>
</g>
<path d="M120.577 39.48C121.484 38.5467 122.044 38.1333 122.257 38.24C122.55 38.3467 122.684 38.6267 122.657 39.08C122.657 39.5333 122.484 39.92 122.137 40.24C121.737 40.6133 121.537 40.9333 121.537 41.2C121.537 41.4667 121.977 41.92 122.857 42.56C123.764 43.2 124.644 43.68 125.497 44C126.084 44.2133 126.457 44.4133 126.617 44.6C126.777 44.76 126.857 45.04 126.857 45.44C126.857 45.9467 126.71 46.3067 126.417 46.52C126.15 46.7067 125.857 46.6667 125.537 46.4C125.377 46.2933 124.87 46 124.017 45.52C123.164 45.0133 122.324 44.56 121.497 44.16C120.697 43.7333 120.257 43.52 120.177 43.52C120.017 43.52 119.577 44.1067 118.857 45.28C118.137 46.4533 117.724 47.2533 117.617 47.68C117.484 48.2133 117.31 48.5467 117.097 48.68C116.884 48.7867 116.524 48.7867 116.017 48.68C115.43 48.5467 115.19 48.2133 115.297 47.68C115.404 47.12 115.897 46.1867 116.777 44.88C117.87 43.3333 118.55 42.2667 118.817 41.68C119.137 41.0933 119.724 40.36 120.577 39.48ZM122.937 51.08C124.804 50.7333 126.097 50.56 126.817 50.56C127.537 50.56 128.017 50.7467 128.257 51.12C128.577 51.6533 128.55 52.0667 128.177 52.36C127.804 52.6267 127.057 52.7733 125.937 52.8C124.657 52.8267 122.817 53.08 120.417 53.56C120.31 53.5867 120.15 53.6133 119.937 53.64C117.324 54.1467 115.79 54.4133 115.337 54.44C114.884 54.4667 114.617 54.3067 114.537 53.96C114.537 53.96 114.524 53.9467 114.497 53.92C114.364 53.3067 114.537 52.8267 115.017 52.48C115.524 52.1333 116.39 51.92 117.617 51.84C118.977 51.7333 120.75 51.48 122.937 51.08ZM121.697 56.6C122.684 56.3867 123.697 56.2933 124.737 56.32C125.804 56.3467 126.497 56.4933 126.817 56.76C127.11 57.0267 127.244 58.1333 127.217 60.08C127.19 62 127.03 63.12 126.737 63.44C125.937 64.1867 124.297 64.56 121.817 64.56C120.75 64.56 120.017 64.6533 119.617 64.84C119.217 65.0267 119.017 65.3733 119.017 65.88C119.017 66.3067 119.257 66.5467 119.737 66.6C120.217 66.68 121.057 66.6 122.257 66.36C125.644 65.64 127.51 65.6133 127.857 66.28C128.124 66.76 128.124 67.1067 127.857 67.32C127.617 67.56 127.057 67.72 126.177 67.8C125.377 67.9067 124.084 68.0933 122.297 68.36C120.564 68.6267 119.444 68.7333 118.937 68.68C118.43 68.6533 117.964 68.4 117.537 67.92C117.084 67.3867 116.844 66.76 116.817 66.04C116.79 65.3467 116.99 64.7333 117.417 64.2C117.737 63.8 118.297 63.48 119.097 63.24C119.924 62.9733 121.164 62.7333 122.817 62.52C123.724 62.4133 124.297 62.2267 124.537 61.96C124.804 61.6933 124.964 61.1067 125.017 60.2C125.097 59.1867 124.924 58.6133 124.497 58.48C124.07 58.32 122.99 58.4533 121.257 58.88C119.39 59.3067 118.07 59.5333 117.297 59.56C116.55 59.56 116.177 59.3467 116.177 58.92C116.177 58.1467 116.95 57.6133 118.497 57.32C119.937 57 121.004 56.76 121.697 56.6ZM142.712 42.08C142.818 41.9733 143.112 41.9333 143.592 41.96C144.098 41.96 144.485 42.0133 144.752 42.12C145.312 42.3333 145.378 42.72 144.952 43.28C144.552 43.84 143.978 44.12 143.232 44.12C142.645 44.12 142.098 44.1867 141.592 44.32C141.298 44.4 141.125 44.5067 141.072 44.64C141.045 44.7467 141.098 45 141.232 45.4C141.445 45.9867 141.512 47.1333 141.432 48.84C141.378 50.0933 141.378 50.8267 141.432 51.04C141.485 51.2533 141.712 51.3733 142.112 51.4C142.725 51.4267 143.178 51.4533 143.472 51.48C143.765 51.48 144.032 51.5067 144.272 51.56C144.512 51.6133 144.672 51.68 144.752 51.76C144.858 51.8133 144.965 51.9067 145.072 52.04C145.125 52.3333 145.152 52.5867 145.152 52.8C145.178 52.9867 144.818 53.1733 144.072 53.36C143.352 53.5467 142.418 53.72 141.272 53.88C140.125 54.04 138.418 54.2533 136.152 54.52C134.898 54.68 134.058 54.76 133.632 54.76C133.232 54.7333 132.925 54.6133 132.712 54.4C132.418 54.1067 132.392 53.8 132.632 53.48C132.872 53.1333 133.338 52.88 134.032 52.72L134.952 52.4L135.032 48.92C135.058 46.5733 134.965 45.3867 134.752 45.36C134.378 45.3067 133.725 45.36 132.792 45.52C131.938 45.6267 131.325 45.5333 130.952 45.24C130.658 45.0533 130.512 44.9067 130.512 44.8C130.512 44.6667 130.632 44.4 130.872 44C131.112 43.6533 131.352 43.44 131.592 43.36C131.858 43.2533 132.298 43.2 132.912 43.2C134.032 43.1467 135.005 43.04 135.832 42.88C136.712 42.6933 138.058 42.52 139.872 42.36C141.712 42.2267 142.658 42.1333 142.712 42.08ZM139.392 48.12C139.418 45.64 139.392 44.3733 139.312 44.32C139.178 44.24 138.778 44.3067 138.112 44.52L137.072 44.8V48.4V52L138.192 51.92L139.312 51.84L139.392 48.12ZM144.552 55.32C144.632 55.24 144.712 55.2 144.792 55.2C144.898 55.2 144.992 55.24 145.072 55.32C145.152 55.4 145.232 55.4933 145.312 55.6C145.392 55.7067 145.445 55.8267 145.472 55.96C145.525 56.0933 145.552 56.24 145.552 56.4C145.552 56.8267 145.418 57.1067 145.152 57.24C144.805 57.4 143.272 57.64 140.552 57.96C138.552 58.1733 137.098 58.3867 136.192 58.6C134.378 59.0267 133.365 58.96 133.152 58.4C133.018 58.0267 133.138 57.6533 133.512 57.28C133.912 56.88 134.418 56.6533 135.032 56.6C135.325 56.5467 137.045 56.32 140.192 55.92C143.018 55.5733 144.472 55.3733 144.552 55.32ZM139.752 59.76C142.365 59.2 143.992 59.1333 144.632 59.56C144.925 59.7467 145.098 60.8133 145.152 62.76C145.232 64.68 145.125 65.84 144.832 66.24C144.538 66.6667 143.085 67.0533 140.472 67.4C137.885 67.7467 136.405 67.76 136.032 67.44C135.738 67.2 135.512 66.1467 135.352 64.28C135.218 62.4133 135.272 61.2533 135.512 60.8C135.725 60.4 136.125 60.2 136.712 60.2C137.352 60.2 138.365 60.0533 139.752 59.76ZM143.112 61.76C143.058 61.5733 142.658 61.48 141.912 61.48C141.165 61.48 140.485 61.5733 139.872 61.76C138.992 62 138.472 62.1467 138.312 62.2C137.965 62.28 137.725 62.4133 137.592 62.6C137.458 62.76 137.338 63.0667 137.232 63.52C137.098 64.2133 137.165 64.7067 137.432 65C137.725 65.2933 138.205 65.4 138.872 65.32C140.178 65.1333 141.018 65.0267 141.392 65L142.992 64.76L143.112 63.44C143.192 62.5333 143.192 61.9733 143.112 61.76Z" fill="black"/>
<path fill-rule="evenodd" clip-rule="evenodd" d="M37.6197 29.7599C39.0599 26.6194 44.8525 19.7429 55.2216 20.0074C63.4676 20.2177 67.6724 25.2506 69.3974 29.2702C72.5426 30.8059 75.4362 32.9786 77.9152 35.714C83.1968 41.5418 86.164 49.446 86.164 57.6877C86.164 57.6877 86.0703 57.8571 85.8384 58.1468C85.9052 58.1585 85.9604 58.1706 86.0037 58.183C86.9325 58.4495 87.4245 58.8503 87.6495 59.2771C90.3519 59.2276 94.0163 60.107 95.7062 63.8034C98.4265 69.7541 85.9451 73.06 80.6645 73.7212C77.7479 74.0864 77.1744 75.0063 76.4636 76.1466C75.8875 77.0709 75.2211 78.14 73.1437 79.1759C69.2097 81.1377 63.7806 79.1793 59.4888 77.6311L59.4888 77.631L59.4885 77.631C58.7179 77.353 57.984 77.0882 57.302 76.8618C54.8685 76.0538 52.1991 76.7086 49.3961 77.3961C47.0383 77.9745 44.586 78.576 42.1003 78.3494C38.6173 78.032 37.8232 76.6984 36.8629 75.0859C36.3232 74.1795 35.731 73.1851 34.5795 72.2335C33.1469 71.0496 31.3093 70.8263 29.5675 70.6146C27.4181 70.3533 25.4147 70.1098 24.4984 68.1011C22.5311 63.7881 25.9919 61.7097 27.6988 61.324L28.0176 61.314C27.9743 61.1923 27.9416 61.0847 27.9174 60.993C27.5333 59.5384 29.2508 58.5136 30.1576 58.183L30.1922 58.1825C29.9392 57.871 29.8378 57.6877 29.8378 57.6877C29.8378 49.446 32.805 41.5418 38.0866 35.714C38.4638 35.2978 38.8505 34.8947 39.2463 34.5049C38.309 34.5641 37.4614 34.488 36.8196 34.2228C36.1796 33.5617 36.8196 31.4128 37.6197 29.7599Z" fill="white"/>
<path fill-rule="evenodd" clip-rule="evenodd" d="M30.0169 54.1848C30.619 48.3273 32.7204 42.7752 36.0752 38.1839C36.7023 37.3257 37.3732 36.5009 38.0863 35.7141C38.4634 35.298 38.8502 34.8948 39.246 34.505C38.3087 34.5642 37.461 34.4881 36.8193 34.2229C36.4411 33.8322 36.5098 32.9221 36.7945 31.9018C36.9916 31.1954 37.2921 30.4362 37.6194 29.76C39.0596 26.6195 44.8522 19.743 55.2213 20.0075C63.4673 20.2178 67.6721 25.2507 69.3971 29.2703C72.5423 30.806 75.4359 32.9787 77.9149 35.7141C82.9118 41.2277 85.837 48.5999 86.1379 56.3581C86.1539 56.7707 86.1625 57.1845 86.1636 57.5991C86.1636 57.5991 86.1636 57.5992 86.1636 57.5991C86.1636 57.6287 86.1637 57.6583 86.1637 57.6878C86.1637 57.6878 86.1497 57.713 86.1193 57.7607C86.0708 57.8365 85.9805 57.969 85.8381 58.1469C85.9048 58.1586 85.96 58.1707 86.0034 58.1831C86.9322 58.4496 87.4242 58.8504 87.6492 59.2772C88.0806 59.2693 88.5364 59.2851 89.0049 59.3322C89.0046 59.3322 89.0051 59.3322 89.0049 59.3322C89.2327 59.3551 89.4643 59.3855 89.6967 59.4242C91.9798 59.8038 94.4171 60.9844 95.7058 63.8035C98.4261 69.7542 85.9448 73.0601 80.6642 73.7213C77.7475 74.0865 77.1741 75.0064 76.4633 76.1467C75.8872 77.071 75.2208 78.1401 73.1434 79.176C69.2094 81.1378 63.7803 79.1794 59.4885 77.6312C58.7179 77.3532 57.9837 77.0883 57.3017 76.8619C54.8682 76.0539 52.1987 76.7087 49.3958 77.3962C47.038 77.9746 44.5857 78.5761 42.1 78.3495C38.617 78.0321 37.8228 76.6985 36.8626 75.086C36.3229 74.1796 35.7307 73.1852 34.5792 72.2336C33.1466 71.0497 31.309 70.8264 29.5671 70.6147C27.4178 70.3534 25.4143 70.1099 24.4981 68.1012C23.0845 65.0022 24.4734 63.0569 26.0004 62.0642C26.5986 61.6753 27.218 61.4327 27.6985 61.3241L28.0173 61.3141C27.974 61.1924 27.9412 61.0848 27.917 60.9931C27.8324 60.6726 27.8498 60.3729 27.9382 60.0969C27.95 60.0599 27.9631 60.0233 27.9774 59.9872C28.3408 59.0697 29.4771 58.4311 30.1573 58.1831L30.1918 58.1826C30.1798 58.1677 30.168 58.1531 30.1566 58.1388C30.1476 58.1275 30.1388 58.1164 30.1302 58.1055C29.9223 57.8411 29.8375 57.6878 29.8375 57.6878C29.8375 57.5494 29.8384 57.4111 29.84 57.2729C29.8526 56.2365 29.912 55.206 30.0169 54.1848ZM25.9563 56.1743C26.2527 48.6658 28.7473 41.4458 33.0851 35.5953C32.7686 34.8547 32.6816 34.1557 32.6568 33.7023C32.6117 32.8766 32.7302 32.0981 32.8618 31.4936C33.1265 30.2783 33.6101 29.0329 34.0969 28.0215C36.074 23.7555 43.1158 15.6975 55.3188 16.0088C64.5453 16.2441 69.8227 21.5228 72.3324 26.3067C75.4449 28.006 78.3028 30.258 80.7833 32.9949C86.2726 39.0519 89.5144 47.0391 90.0084 55.4333C93.2189 55.9016 97.1632 57.5472 99.2488 62.1094C99.8742 63.4775 100.138 64.9598 99.9298 66.4702C99.7249 67.9544 99.1003 69.206 98.346 70.2092C96.9104 72.1182 94.7717 73.4423 92.8483 74.3664C88.9152 76.256 84.0389 77.3286 81.1395 77.6916C80.4791 77.7743 80.1417 77.875 79.999 77.9281C79.9535 77.9952 79.8774 78.1104 79.7611 78.297L79.7315 78.3446C79.4385 78.8152 78.9381 79.619 78.139 80.4405C77.2962 81.307 76.2396 82.0821 74.8575 82.7714C71.8019 84.2951 68.4828 84.1569 65.7592 83.6569C63.0599 83.1614 60.38 82.1945 58.3054 81.4459L58.2195 81.4149L58.1876 81.4034C57.4059 81.1214 56.7203 80.8743 56.094 80.6664C54.9078 80.2725 53.3975 80.5281 50.3079 81.2859C50.2393 81.3028 50.1698 81.3198 50.0996 81.3371C47.8721 81.8846 44.8834 82.6191 41.7528 82.3337C39.5645 82.1343 37.7192 81.57 36.1982 80.4107C34.8224 79.3621 34.0383 78.0379 33.5933 77.2862C33.5686 77.2445 33.545 77.2046 33.5223 77.1666C32.9991 76.288 32.7019 75.8249 32.1211 75.3449C31.7111 75.006 31.0651 74.8249 29.1056 74.5867C29.0552 74.5806 29.0031 74.5743 28.9494 74.5679C27.9897 74.4524 26.5247 74.2762 25.1773 73.751C23.5457 73.115 21.9253 71.9223 20.9538 69.7923C19.3934 66.3714 19.8403 63.1677 21.6206 60.8009C22.4237 59.7332 23.4133 58.9464 24.3917 58.3908C24.7876 57.4582 25.3764 56.7346 25.8633 56.2629C25.8941 56.233 25.9252 56.2034 25.9563 56.1743Z" fill="white"/>
<path d="M24.3226 68.1011C22.3553 63.7881 25.8161 61.7097 27.523 61.324L85.4493 59.5058C87.9029 58.9548 93.3541 59.043 95.5304 63.8035C98.2507 69.7541 85.7693 73.06 80.4887 73.7212C75.2082 74.3824 77.6084 76.8618 72.9679 79.1759C68.3274 81.4901 61.6067 78.3495 57.1262 76.8618C52.6457 75.3741 47.3651 78.8453 41.9245 78.3495C36.4839 77.8536 37.6041 74.8783 34.4037 72.2335C31.2034 69.5888 25.9814 71.7377 24.3226 68.1011Z" fill="#B4DDFF"/>
<path d="M27.7416 60.9935C27.3576 59.5389 29.0751 58.514 29.9819 58.1834C47.6371 57.9079 83.5237 57.5223 85.8279 58.1834C88.1322 58.8446 87.7482 60.3323 87.2681 60.9935C84.1211 64.2994 73.2506 70.9112 54.9446 70.9112C32.0621 70.9112 28.2217 62.8117 27.7416 60.9935Z" fill="#FAD2D0" stroke="#FFBEBA" stroke-width="2.6479"/>
<path d="M85.9883 57.6878C85.9883 49.4461 83.0211 41.5419 77.7395 35.7141C72.4579 29.8863 65.2945 26.6123 57.8252 26.6123C50.3559 26.6123 43.1925 29.8863 37.9109 35.7141C32.6293 41.5419 29.6621 49.4461 29.6621 57.6878C29.6621 57.6878 34.1426 65.7873 57.8252 65.7873C81.5078 65.7873 85.9883 57.6878 85.9883 57.6878Z" fill="#08A075"/>
<path d="M55.0461 20.0074C44.6769 19.7429 38.8843 26.6194 37.4442 29.7599C36.6441 31.4128 36.004 33.5617 36.6441 34.2228C39.0443 35.2146 44.3249 33.5617 46.4051 32.074C48.0693 30.8839 48.272 31.1373 48.1653 31.4128C48.1653 32.8454 48.3894 36.5039 49.2854 39.6776C50.1815 42.8513 52.7046 41.819 54.086 40.1735C54.086 40.1735 59.4253 34.0501 60.6467 32.5699C61.8681 31.0897 65.506 36.8601 67.3674 37.5287C70.2339 38.5583 70.3011 34.4983 70.0877 32.074C69.3943 28.162 65.4152 20.2719 55.0461 20.0074Z" fill="#FBB12C"/>
<defs>
<filter id="filter0_d_58_621" x="0" y="0" width="189" height="124" filterUnits="userSpaceOnUse" color-interpolation-filters="sRGB">
<feFlood flood-opacity="0" result="BackgroundImageFix"/>
<feColorMatrix in="SourceAlpha" type="matrix" values="0 0 0 0 0 0 0 0 0 0 0 0 0 0 0 0 0 0 127 0" result="hardAlpha"/>
<feOffset dx="4" dy="4"/>
<feGaussianBlur stdDeviation="5"/>
<feComposite in2="hardAlpha" operator="out"/>
<feColorMatrix type="matrix" values="0 0 0 0 0 0 0 0 0 0 0 0 0 0 0 0 0 0 0.2 0"/>
<feBlend mode="normal" in2="BackgroundImageFix" result="effect1_dropShadow_58_621"/>
<feBlend mode="normal" in="SourceGraphic" in2="effect1_dropShadow_58_621" result="shape"/>
</filter>
</defs>
</svg>
