<svg width="189" height="124" viewBox="0 0 189 124" fill="none" xmlns="http://www.w3.org/2000/svg">
<g filter="url(#filter0_d_58_615)">
<path fill-rule="evenodd" clip-rule="evenodd" d="M22 6C13.1634 6 6 13.1634 6 22V85C6 92.3618 10.9718 98.5623 17.7409 100.427L22.4019 108.5C23.5566 110.5 26.4434 110.5 27.5981 108.5L31.9282 101H159C167.837 101 175 93.8366 175 85V22C175 13.1634 167.837 6 159 6H22Z" fill="white"/>
</g>
<path d="M129.413 46.72C129.6 46.4267 129.893 46.32 130.293 46.4C130.72 46.4533 131 46.6667 131.133 47.04C131.293 47.52 131.293 49.12 131.133 51.84C130.973 54.8267 130.893 57.52 130.893 59.92C130.866 62.5333 130.733 63.96 130.493 64.2C130.226 64.44 129.92 64.56 129.573 64.56C129.226 64.5333 129.013 64.4 128.933 64.16C128.826 63.84 128.853 60.9067 129.013 55.36C129.173 49.8133 129.306 46.9333 129.413 46.72ZM116.573 48.4C117.293 48.2667 117.84 48.1733 118.213 48.12C118.613 48.0667 119 48.0267 119.373 48C119.746 47.9733 120.013 47.9733 120.173 48C120.36 48 120.52 48.04 120.653 48.12C120.813 48.1733 120.92 48.2533 120.973 48.36C121.026 48.44 121.093 48.5733 121.173 48.76C121.573 49.8 121.16 52.84 119.933 57.88C119.586 59.3467 119.32 60.32 119.133 60.8C118.946 61.2533 118.72 61.5067 118.453 61.56C117.84 61.72 117.466 61.6 117.333 61.2C117.2 60.8 117.293 60.0667 117.613 59C117.933 57.9867 118.293 56.3067 118.693 53.96C119.12 51.6133 119.28 50.3867 119.173 50.28C119.066 50.1733 118.493 50.2133 117.453 50.4C114.44 51.04 112.533 51.4133 111.733 51.52C110.96 51.6 110.36 51.56 109.933 51.4C108.76 50.8667 109.213 50.2533 111.293 49.56C112.573 49.1333 114.333 48.7467 116.573 48.4ZM139.718 42.12C139.825 41.8267 140.065 41.6667 140.438 41.64C140.838 41.6133 141.118 41.7333 141.278 42C141.438 42.24 141.518 43.8933 141.518 46.96C141.518 48.1333 141.518 48.9733 141.518 49.48C141.518 49.9867 141.465 50.5333 141.358 51.12C141.252 51.7067 141.145 52.08 141.038 52.24C140.932 52.3733 140.665 52.5467 140.238 52.76C139.838 52.9733 139.452 53.0933 139.078 53.12C138.732 53.1467 138.145 53.1733 137.318 53.2C136.092 53.2533 135.252 53.2667 134.798 53.24C134.372 53.1867 134.078 53.0667 133.918 52.88C133.705 52.5867 133.518 51.1067 133.358 48.44C133.198 45.7467 133.198 44.0533 133.358 43.36C133.438 43.0133 133.545 42.8 133.678 42.72C133.812 42.6133 134.065 42.5867 134.438 42.64C134.838 42.6667 135.065 42.76 135.118 42.92C135.198 43.08 135.212 43.56 135.158 44.36C135.078 45.48 135.118 46.04 135.278 46.04C135.438 46.04 136.172 45.8667 137.478 45.52L139.518 45V43.8C139.518 43.0533 139.585 42.4933 139.718 42.12ZM139.518 49C139.518 48.04 139.398 47.48 139.158 47.32C138.918 47.1333 138.358 47.2133 137.478 47.56C136.332 48.0133 135.652 48.36 135.438 48.6C135.252 48.8133 135.212 49.24 135.318 49.88C135.372 50.2 135.412 50.4267 135.438 50.56C135.465 50.6933 135.532 50.8 135.638 50.88C135.772 50.96 135.905 51.0133 136.038 51.04C136.198 51.04 136.465 51.04 136.838 51.04C138.065 51.04 138.812 50.9333 139.078 50.72C139.372 50.5067 139.518 49.9333 139.518 49ZM144.038 41.96C144.492 41.5067 144.892 41.4667 145.238 41.84C145.612 42.1867 145.798 42.8 145.798 43.68C145.798 44.5867 145.918 45.1067 146.158 45.24C146.372 45.3733 146.945 45.3067 147.878 45.04C148.838 44.7733 149.345 44.5333 149.398 44.32C149.425 44.2133 149.532 43.7067 149.718 42.8C149.825 42.2667 149.932 41.9333 150.038 41.8C150.172 41.6667 150.425 41.6267 150.798 41.68L151.638 41.8L151.558 46.64C151.532 49.8667 151.385 51.6 151.118 51.84C150.905 52.0533 150.318 52.28 149.358 52.52C148.398 52.76 147.505 52.92 146.678 53C145.852 53.08 145.265 53.0667 144.918 52.96C144.545 52.7733 144.292 52.2533 144.158 51.4C144.025 50.5467 143.918 48.7867 143.838 46.12C143.758 43.5867 143.825 42.2 144.038 41.96ZM149.558 46.96H148.558C147.812 46.96 147.158 47.16 146.598 47.56C146.278 47.7467 146.065 47.9067 145.958 48.04C145.852 48.1467 145.772 48.32 145.718 48.56C145.692 48.7733 145.705 49.0667 145.758 49.44C145.812 50.08 145.892 50.4533 145.998 50.56C146.132 50.6667 146.478 50.72 147.038 50.72C148.185 50.72 148.892 50.6133 149.158 50.4C149.425 50.1867 149.558 49.6133 149.558 48.68V46.96ZM149.558 55.8C150.065 55.64 150.505 55.6533 150.878 55.84C151.252 56 151.505 56.2933 151.638 56.72C151.798 57.2267 151.718 57.5733 151.398 57.76C151.078 57.92 150.358 58 149.238 58C148.038 58 146.158 58.1467 143.598 58.44C141.038 58.7333 139.585 58.9867 139.238 59.2C138.838 59.44 138.412 59.44 137.958 59.2C137.532 58.9333 137.318 58.5867 137.318 58.16C137.318 57.8133 137.398 57.5733 137.558 57.44C137.718 57.3067 138.038 57.1733 138.518 57.04C141.025 56.4267 143.625 56.0933 146.318 56.04C148.025 56.0133 149.105 55.9333 149.558 55.8ZM145.438 60.96C145.545 60.8533 146.092 60.8 147.078 60.8C148.118 60.8 148.772 61.0133 149.038 61.44C149.332 61.84 149.438 62.72 149.358 64.08C149.278 65.7067 149.238 66.64 149.238 66.88C149.238 67.2533 148.865 67.5867 148.118 67.88C147.398 68.2 146.585 68.36 145.678 68.36C144.718 68.36 143.718 68.48 142.678 68.72C142.012 68.88 141.532 68.9467 141.238 68.92C140.972 68.8933 140.665 68.76 140.318 68.52C139.945 68.3067 139.718 68.04 139.638 67.72C139.558 67.4267 139.518 66.6533 139.518 65.4C139.518 64.7067 139.518 64.1733 139.518 63.8C139.545 63.4267 139.598 63.0667 139.678 62.72C139.785 62.3467 139.892 62.0933 139.998 61.96C140.105 61.8267 140.292 61.6933 140.558 61.56C140.852 61.4267 141.145 61.3467 141.438 61.32C141.758 61.2933 142.198 61.2667 142.758 61.24C144.438 61.16 145.332 61.0667 145.438 60.96ZM147.358 63L145.918 63.04C145.012 63.04 144.025 63.16 142.958 63.4C142.318 63.56 141.918 63.72 141.758 63.88C141.598 64.04 141.505 64.3733 141.478 64.88C141.398 65.7333 141.478 66.24 141.718 66.4C141.958 66.5867 142.545 66.6 143.478 66.44C143.772 66.3867 144.252 66.3067 144.918 66.2C145.585 66.0933 146.025 66.0267 146.238 66C146.798 65.92 147.118 65.8 147.198 65.64C147.305 65.48 147.358 65.0667 147.358 64.4V63Z" fill="black"/>
<ellipse cx="57" cy="67" rx="38" ry="16" fill="white"/>
<ellipse cx="57.5067" cy="50" rx="32.4267" ry="31" fill="white"/>
<mask id="path-5-inside-1_58_615" fill="white">
<path fill-rule="evenodd" clip-rule="evenodd" d="M84.4122 59.1588C85.2017 56.5774 85.6263 53.838 85.6263 51C85.6263 35.536 73.0196 23 57.4685 23C41.9173 23 29.3107 35.536 29.3107 51C29.3107 53.995 29.7835 56.8802 30.6591 59.5857C27.7606 61.5161 26.0925 63.7798 26.0925 66.2004C26.0925 73.1411 39.8075 78.7916 56.9168 78.9947C57.1003 78.9982 57.2842 79 57.4685 79C57.5021 79 57.5356 78.9999 57.5691 78.9998C57.6695 79.0002 57.77 79.0004 57.8707 79.0004C75.4212 79.0004 89.6488 73.2696 89.6488 66.2004C89.6488 63.599 87.7221 61.1788 84.4122 59.1588Z"/>
</mask>
<path fill-rule="evenodd" clip-rule="evenodd" d="M84.4122 59.1588C85.2017 56.5774 85.6263 53.838 85.6263 51C85.6263 35.536 73.0196 23 57.4685 23C41.9173 23 29.3107 35.536 29.3107 51C29.3107 53.995 29.7835 56.8802 30.6591 59.5857C27.7606 61.5161 26.0925 63.7798 26.0925 66.2004C26.0925 73.1411 39.8075 78.7916 56.9168 78.9947C57.1003 78.9982 57.2842 79 57.4685 79C57.5021 79 57.5356 78.9999 57.5691 78.9998C57.6695 79.0002 57.77 79.0004 57.8707 79.0004C75.4212 79.0004 89.6488 73.2696 89.6488 66.2004C89.6488 63.599 87.7221 61.1788 84.4122 59.1588Z" fill="#FAD2D0"/>
<path d="M84.4122 59.1588L81.5434 58.2814L80.8627 60.5071L82.8494 61.7196L84.4122 59.1588ZM30.6591 59.5857L32.3221 62.0827L34.2128 60.8234L33.5134 58.662L30.6591 59.5857ZM56.9168 78.9947L56.9741 75.9953L56.9633 75.9951L56.9524 75.9949L56.9168 78.9947ZM57.5691 78.9998L57.5804 75.9998L57.5695 75.9998L57.5586 75.9998L57.5691 78.9998ZM82.6263 51C82.6263 53.5373 82.2469 55.9811 81.5434 58.2814L87.2811 60.0362C88.1565 57.1737 88.6263 54.1388 88.6263 51H82.6263ZM57.4685 26C71.3787 26 82.6263 37.2088 82.6263 51H88.6263C88.6263 33.8633 74.6606 20 57.4685 20V26ZM32.3107 51C32.3107 37.2088 43.5583 26 57.4685 26V20C40.2764 20 26.3107 33.8633 26.3107 51H32.3107ZM33.5134 58.662C32.7331 56.2511 32.3107 53.6775 32.3107 51H26.3107C26.3107 54.3126 26.8339 57.5093 27.8049 60.5094L33.5134 58.662ZM29.0925 66.2004C29.0925 65.2677 29.7533 63.7935 32.3221 62.0827L28.9962 57.0888C25.768 59.2388 23.0925 62.2919 23.0925 66.2004H29.0925ZM56.9524 75.9949C48.6778 75.8967 41.3678 74.4774 36.2365 72.3524C33.6636 71.2869 31.7835 70.1037 30.5933 68.9474C29.4123 67.7999 29.0925 66.8733 29.0925 66.2004H23.0925C23.0925 68.9979 24.4871 71.3803 26.4123 73.2507C28.3284 75.1123 30.9464 76.6558 33.9408 77.8959C39.9444 80.3821 48.0465 81.8896 56.8812 81.9945L56.9524 75.9949ZM57.4685 76C57.3033 76 57.1385 75.9984 56.9741 75.9953L56.8595 81.9942C57.0621 81.9981 57.2651 82 57.4685 82V76ZM57.5586 75.9998C57.5287 76 57.4986 76 57.4685 76V82C57.5055 82 57.5425 81.9999 57.5797 81.9998L57.5586 75.9998ZM57.8707 76.0004C57.7738 76.0004 57.677 76.0002 57.5804 75.9998L57.5579 81.9998C57.6621 82.0002 57.7663 82.0004 57.8707 82.0004V76.0004ZM86.6488 66.2004C86.6488 66.8849 86.3168 67.8349 85.0826 69.0102C83.8413 70.1924 81.8852 71.3952 79.2203 72.4686C73.9067 74.6089 66.3598 76.0004 57.8707 76.0004V82.0004C66.9321 82.0004 75.2743 80.5265 81.4621 78.0341C84.5479 76.7911 87.2456 75.2358 89.2204 73.3552C91.2023 71.4678 92.6488 69.0505 92.6488 66.2004H86.6488ZM82.8494 61.7196C85.8648 63.5598 86.6488 65.1932 86.6488 66.2004H92.6488C92.6488 62.0048 89.5795 58.7978 85.9751 56.598L82.8494 61.7196Z" fill="#FFBEBA" mask="url(#path-5-inside-1_58_615)"/>
<ellipse cx="43.6841" cy="56.0402" rx="1.7024" ry="2.8" fill="#816A5C"/>
<ellipse cx="72.0574" cy="56.0402" rx="1.7024" ry="2.8" fill="#816A5C"/>
<path d="M46.522 65.5596C49.9268 67.6129 61.8436 69.4796 71.4905 65.5596" stroke="#816A5C" stroke-width="2" stroke-linecap="round"/>
<defs>
<filter id="filter0_d_58_615" x="0" y="0" width="189" height="124" filterUnits="userSpaceOnUse" color-interpolation-filters="sRGB">
<feFlood flood-opacity="0" result="BackgroundImageFix"/>
<feColorMatrix in="SourceAlpha" type="matrix" values="0 0 0 0 0 0 0 0 0 0 0 0 0 0 0 0 0 0 127 0" result="hardAlpha"/>
<feOffset dx="4" dy="4"/>
<feGaussianBlur stdDeviation="5"/>
<feComposite in2="hardAlpha" operator="out"/>
<feColorMatrix type="matrix" values="0 0 0 0 0 0 0 0 0 0 0 0 0 0 0 0 0 0 0.2 0"/>
<feBlend mode="normal" in2="BackgroundImageFix" result="effect1_dropShadow_58_615"/>
<feBlend mode="normal" in="SourceGraphic" in2="effect1_dropShadow_58_615" result="shape"/>
</filter>
</defs>
</svg>
